<svg width="20" height="20" viewBox="0 0 20 20" fill="none" xmlns="http://www.w3.org/2000/svg">
<mask id="path-1-outside-1_173_12" maskUnits="userSpaceOnUse" x="0" y="0" width="20" height="20" fill="black">
<rect fill="white" width="20" height="20"/>
<path d="M10.1955 18C8.89577 18 7.73867 17.8235 6.72416 17.4705C5.70966 17.1216 4.85202 16.6083 4.15124 15.9308C3.45045 15.2573 2.91672 14.4336 2.55003 13.4599C2.18334 12.4861 2 11.3785 2 10.1369C2 8.91163 2.18334 7.79992 2.55003 6.80183C2.92079 5.80373 3.46064 4.94764 4.16957 4.23355C4.8785 3.51541 5.74429 2.96361 6.76694 2.57817C7.79367 2.19272 8.963 2 10.2749 2C11.4891 2 12.5728 2.17649 13.5262 2.52948C14.4837 2.88247 15.2945 3.38557 15.9586 4.0388C16.6268 4.68797 17.134 5.46089 17.4803 6.35755C17.8307 7.25016 18.0039 8.23811 17.9998 9.32142C18.0039 10.068 17.9387 10.7536 17.8043 11.3785C17.6698 12.0033 17.4579 12.549 17.1687 13.0156C16.8835 13.4781 16.5086 13.8453 16.0442 14.1172C15.5797 14.3849 15.0174 14.5371 14.3574 14.5736C13.8848 14.6101 13.5018 14.5756 13.2084 14.4701C12.9151 14.3647 12.691 14.2084 12.5362 14.0015C12.3854 13.7905 12.2876 13.5451 12.2428 13.2651H12.1695C12.0717 13.5086 11.8802 13.7297 11.595 13.9285C11.3098 14.1232 10.9614 14.2754 10.5499 14.3849C10.1425 14.4904 9.7086 14.529 9.2482 14.5006C8.76743 14.4722 8.31111 14.3606 7.87923 14.1658C7.45143 13.9711 7.07048 13.6891 6.73639 13.3199C6.40637 12.9507 6.14561 12.4942 5.95412 11.9506C5.7667 11.4069 5.67095 10.778 5.66688 10.0639C5.67095 9.35793 5.77078 8.74325 5.96634 8.21986C6.16598 7.69646 6.42878 7.25624 6.75472 6.8992C7.08474 6.54216 7.45143 6.2622 7.85478 6.05934C8.25814 5.85647 8.66354 5.72664 9.07097 5.66984C9.53136 5.60086 9.96731 5.60086 10.3788 5.66984C10.7903 5.73881 11.1366 5.85039 11.4178 6.00457C11.703 6.15874 11.8802 6.32509 11.9495 6.50361H12.035V5.82199H13.9479V11.7619C13.952 12.0418 14.0151 12.2589 14.1374 12.4131C14.2596 12.5673 14.4246 12.6444 14.6324 12.6444C14.9135 12.6444 15.1478 12.5206 15.3352 12.2731C15.5267 12.0256 15.6693 11.6463 15.763 11.135C15.8608 10.6238 15.9097 9.97261 15.9097 9.18144C15.9097 8.41866 15.8078 7.74921 15.6041 7.17307C15.4045 6.59287 15.1234 6.09991 14.7607 5.69418C14.4022 5.28439 13.9846 4.95169 13.5079 4.69608C13.0312 4.44047 12.5138 4.25384 11.9556 4.13617C11.4015 4.01851 10.8311 3.95968 10.2444 3.95968C9.22987 3.95968 8.3437 4.11386 7.58588 4.42221C6.82806 4.72651 6.19654 5.15456 5.69133 5.70635C5.18611 6.25815 4.8072 6.90529 4.55459 7.64778C4.30606 8.38621 4.17976 9.19158 4.17568 10.0639C4.17976 11.0255 4.31421 11.8775 4.57904 12.62C4.84794 13.3584 5.24315 13.9792 5.76466 14.4823C6.28618 14.9854 6.92992 15.3668 7.69589 15.6265C8.46186 15.8861 9.34191 16.016 10.336 16.016C10.8046 16.016 11.2629 15.9815 11.7111 15.9125C12.1593 15.8476 12.5647 15.7665 12.9273 15.6691C13.2899 15.5758 13.5812 15.4845 13.8012 15.3952L14.4063 17.1601C14.1496 17.3062 13.8012 17.4421 13.3612 17.5679C12.9253 17.6977 12.4323 17.8012 11.8822 17.8783C11.3363 17.9594 10.774 18 10.1955 18ZM9.91435 12.4983C10.4114 12.4983 10.8066 12.4029 11.1 12.2122C11.3974 12.0216 11.6093 11.7396 11.7356 11.3663C11.8659 10.989 11.9271 10.5244 11.9189 9.97261C11.9148 9.48574 11.8517 9.07392 11.7295 8.73716C11.6113 8.39635 11.4055 8.13871 11.1122 7.96425C10.8229 7.78572 10.4196 7.69646 9.90213 7.69646C9.44988 7.69646 9.06486 7.79181 8.74706 7.9825C8.43334 8.1732 8.19295 8.44098 8.02591 8.78585C7.86293 9.12666 7.77941 9.52834 7.77534 9.99087C7.77941 10.4209 7.84867 10.8287 7.98313 11.2141C8.11758 11.5955 8.33963 11.9059 8.64928 12.1453C8.95892 12.3806 9.38061 12.4983 9.91435 12.4983Z"/>
</mask>
<path d="M10.1955 18C8.89577 18 7.73867 17.8235 6.72416 17.4705C5.70966 17.1216 4.85202 16.6083 4.15124 15.9308C3.45045 15.2573 2.91672 14.4336 2.55003 13.4599C2.18334 12.4861 2 11.3785 2 10.1369C2 8.91163 2.18334 7.79992 2.55003 6.80183C2.92079 5.80373 3.46064 4.94764 4.16957 4.23355C4.8785 3.51541 5.74429 2.96361 6.76694 2.57817C7.79367 2.19272 8.963 2 10.2749 2C11.4891 2 12.5728 2.17649 13.5262 2.52948C14.4837 2.88247 15.2945 3.38557 15.9586 4.0388C16.6268 4.68797 17.134 5.46089 17.4803 6.35755C17.8307 7.25016 18.0039 8.23811 17.9998 9.32142C18.0039 10.068 17.9387 10.7536 17.8043 11.3785C17.6698 12.0033 17.4579 12.549 17.1687 13.0156C16.8835 13.4781 16.5086 13.8453 16.0442 14.1172C15.5797 14.3849 15.0174 14.5371 14.3574 14.5736C13.8848 14.6101 13.5018 14.5756 13.2084 14.4701C12.9151 14.3647 12.691 14.2084 12.5362 14.0015C12.3854 13.7905 12.2876 13.5451 12.2428 13.2651H12.1695C12.0717 13.5086 11.8802 13.7297 11.595 13.9285C11.3098 14.1232 10.9614 14.2754 10.5499 14.3849C10.1425 14.4904 9.7086 14.529 9.2482 14.5006C8.76743 14.4722 8.31111 14.3606 7.87923 14.1658C7.45143 13.9711 7.07048 13.6891 6.73639 13.3199C6.40637 12.9507 6.14561 12.4942 5.95412 11.9506C5.7667 11.4069 5.67095 10.778 5.66688 10.0639C5.67095 9.35793 5.77078 8.74325 5.96634 8.21986C6.16598 7.69646 6.42878 7.25624 6.75472 6.8992C7.08474 6.54216 7.45143 6.2622 7.85478 6.05934C8.25814 5.85647 8.66354 5.72664 9.07097 5.66984C9.53136 5.60086 9.96731 5.60086 10.3788 5.66984C10.7903 5.73881 11.1366 5.85039 11.4178 6.00457C11.703 6.15874 11.8802 6.32509 11.9495 6.50361H12.035V5.82199H13.9479V11.7619C13.952 12.0418 14.0151 12.2589 14.1374 12.4131C14.2596 12.5673 14.4246 12.6444 14.6324 12.6444C14.9135 12.6444 15.1478 12.5206 15.3352 12.2731C15.5267 12.0256 15.6693 11.6463 15.763 11.135C15.8608 10.6238 15.9097 9.97261 15.9097 9.18144C15.9097 8.41866 15.8078 7.74921 15.6041 7.17307C15.4045 6.59287 15.1234 6.09991 14.7607 5.69418C14.4022 5.28439 13.9846 4.95169 13.5079 4.69608C13.0312 4.44047 12.5138 4.25384 11.9556 4.13617C11.4015 4.01851 10.8311 3.95968 10.2444 3.95968C9.22987 3.95968 8.3437 4.11386 7.58588 4.42221C6.82806 4.72651 6.19654 5.15456 5.69133 5.70635C5.18611 6.25815 4.8072 6.90529 4.55459 7.64778C4.30606 8.38621 4.17976 9.19158 4.17568 10.0639C4.17976 11.0255 4.31421 11.8775 4.57904 12.62C4.84794 13.3584 5.24315 13.9792 5.76466 14.4823C6.28618 14.9854 6.92992 15.3668 7.69589 15.6265C8.46186 15.8861 9.34191 16.016 10.336 16.016C10.8046 16.016 11.2629 15.9815 11.7111 15.9125C12.1593 15.8476 12.5647 15.7665 12.9273 15.6691C13.2899 15.5758 13.5812 15.4845 13.8012 15.3952L14.4063 17.1601C14.1496 17.3062 13.8012 17.4421 13.3612 17.5679C12.9253 17.6977 12.4323 17.8012 11.8822 17.8783C11.3363 17.9594 10.774 18 10.1955 18ZM9.91435 12.4983C10.4114 12.4983 10.8066 12.4029 11.1 12.2122C11.3974 12.0216 11.6093 11.7396 11.7356 11.3663C11.8659 10.989 11.9271 10.5244 11.9189 9.97261C11.9148 9.48574 11.8517 9.07392 11.7295 8.73716C11.6113 8.39635 11.4055 8.13871 11.1122 7.96425C10.8229 7.78572 10.4196 7.69646 9.90213 7.69646C9.44988 7.69646 9.06486 7.79181 8.74706 7.9825C8.43334 8.1732 8.19295 8.44098 8.02591 8.78585C7.86293 9.12666 7.77941 9.52834 7.77534 9.99087C7.77941 10.4209 7.84867 10.8287 7.98313 11.2141C8.11758 11.5955 8.33963 11.9059 8.64928 12.1453C8.95892 12.3806 9.38061 12.4983 9.91435 12.4983Z" fill="#FD7655"/>
<path d="M10.1955 18C8.89577 18 7.73867 17.8235 6.72416 17.4705C5.70966 17.1216 4.85202 16.6083 4.15124 15.9308C3.45045 15.2573 2.91672 14.4336 2.55003 13.4599C2.18334 12.4861 2 11.3785 2 10.1369C2 8.91163 2.18334 7.79992 2.55003 6.80183C2.92079 5.80373 3.46064 4.94764 4.16957 4.23355C4.8785 3.51541 5.74429 2.96361 6.76694 2.57817C7.79367 2.19272 8.963 2 10.2749 2C11.4891 2 12.5728 2.17649 13.5262 2.52948C14.4837 2.88247 15.2945 3.38557 15.9586 4.0388C16.6268 4.68797 17.134 5.46089 17.4803 6.35755C17.8307 7.25016 18.0039 8.23811 17.9998 9.32142C18.0039 10.068 17.9387 10.7536 17.8043 11.3785C17.6698 12.0033 17.4579 12.549 17.1687 13.0156C16.8835 13.4781 16.5086 13.8453 16.0442 14.1172C15.5797 14.3849 15.0174 14.5371 14.3574 14.5736C13.8848 14.6101 13.5018 14.5756 13.2084 14.4701C12.9151 14.3647 12.691 14.2084 12.5362 14.0015C12.3854 13.7905 12.2876 13.5451 12.2428 13.2651H12.1695C12.0717 13.5086 11.8802 13.7297 11.595 13.9285C11.3098 14.1232 10.9614 14.2754 10.5499 14.3849C10.1425 14.4904 9.7086 14.529 9.2482 14.5006C8.76743 14.4722 8.31111 14.3606 7.87923 14.1658C7.45143 13.9711 7.07048 13.6891 6.73639 13.3199C6.40637 12.9507 6.14561 12.4942 5.95412 11.9506C5.7667 11.4069 5.67095 10.778 5.66688 10.0639C5.67095 9.35793 5.77078 8.74325 5.96634 8.21986C6.16598 7.69646 6.42878 7.25624 6.75472 6.8992C7.08474 6.54216 7.45143 6.2622 7.85478 6.05934C8.25814 5.85647 8.66354 5.72664 9.07097 5.66984C9.53136 5.60086 9.96731 5.60086 10.3788 5.66984C10.7903 5.73881 11.1366 5.85039 11.4178 6.00457C11.703 6.15874 11.8802 6.32509 11.9495 6.50361H12.035V5.82199H13.9479V11.7619C13.952 12.0418 14.0151 12.2589 14.1374 12.4131C14.2596 12.5673 14.4246 12.6444 14.6324 12.6444C14.9135 12.6444 15.1478 12.5206 15.3352 12.2731C15.5267 12.0256 15.6693 11.6463 15.763 11.135C15.8608 10.6238 15.9097 9.97261 15.9097 9.18144C15.9097 8.41866 15.8078 7.74921 15.6041 7.17307C15.4045 6.59287 15.1234 6.09991 14.7607 5.69418C14.4022 5.28439 13.9846 4.95169 13.5079 4.69608C13.0312 4.44047 12.5138 4.25384 11.9556 4.13617C11.4015 4.01851 10.8311 3.95968 10.2444 3.95968C9.22987 3.95968 8.3437 4.11386 7.58588 4.42221C6.82806 4.72651 6.19654 5.15456 5.69133 5.70635C5.18611 6.25815 4.8072 6.90529 4.55459 7.64778C4.30606 8.38621 4.17976 9.19158 4.17568 10.0639C4.17976 11.0255 4.31421 11.8775 4.57904 12.62C4.84794 13.3584 5.24315 13.9792 5.76466 14.4823C6.28618 14.9854 6.92992 15.3668 7.69589 15.6265C8.46186 15.8861 9.34191 16.016 10.336 16.016C10.8046 16.016 11.2629 15.9815 11.7111 15.9125C12.1593 15.8476 12.5647 15.7665 12.9273 15.6691C13.2899 15.5758 13.5812 15.4845 13.8012 15.3952L14.4063 17.1601C14.1496 17.3062 13.8012 17.4421 13.3612 17.5679C12.9253 17.6977 12.4323 17.8012 11.8822 17.8783C11.3363 17.9594 10.774 18 10.1955 18ZM9.91435 12.4983C10.4114 12.4983 10.8066 12.4029 11.1 12.2122C11.3974 12.0216 11.6093 11.7396 11.7356 11.3663C11.8659 10.989 11.9271 10.5244 11.9189 9.97261C11.9148 9.48574 11.8517 9.07392 11.7295 8.73716C11.6113 8.39635 11.4055 8.13871 11.1122 7.96425C10.8229 7.78572 10.4196 7.69646 9.90213 7.69646C9.44988 7.69646 9.06486 7.79181 8.74706 7.9825C8.43334 8.1732 8.19295 8.44098 8.02591 8.78585C7.86293 9.12666 7.77941 9.52834 7.77534 9.99087C7.77941 10.4209 7.84867 10.8287 7.98313 11.2141C8.11758 11.5955 8.33963 11.9059 8.64928 12.1453C8.95892 12.3806 9.38061 12.4983 9.91435 12.4983Z" stroke="#F0F3F6" stroke-width="0" mask="url(#path-1-outside-1_173_12)"/>
</svg>
