<svg width="39" height="34" viewBox="0 0 39 34" fill="none" xmlns="http://www.w3.org/2000/svg">
<path d="M37.7836 16.8826C38.391 16.8826 38.8877 16.385 38.8877 15.777C38.8877 15.169 38.391 14.6714 37.7836 14.6714C37.1766 14.6714 36.6799 15.169 36.6799 15.777C36.6799 16.385 37.1766 16.8826 37.7836 16.8826Z" fill="#F0F3F6"/>
<path d="M37.7834 14.4343C38.3908 14.4343 38.8874 13.9376 38.8874 13.3306C38.8874 12.7232 38.3908 12.2266 37.7834 12.2266C37.1763 12.2266 36.6797 12.7232 36.6797 13.3306C36.6797 13.9376 37.1763 14.4343 37.7834 14.4343Z" fill="#F0F3F6"/>
<path d="M37.7834 11.9893C38.3908 11.9893 38.8874 11.4926 38.8874 10.8853C38.8874 10.2779 38.3908 9.78125 37.7834 9.78125C37.1763 9.78125 36.6797 10.2779 36.6797 10.8853C36.6797 11.4926 37.1763 11.9893 37.7834 11.9893Z" fill="#F0F3F6"/>
<path d="M37.7834 9.54366C38.3908 9.54366 38.8874 9.04701 38.8874 8.43964C38.8874 7.83259 38.3908 7.33594 37.7834 7.33594C37.1763 7.33594 36.6797 7.83259 36.6797 8.43964C36.6797 9.04701 37.1763 9.54366 37.7834 9.54366Z" fill="#F0F3F6"/>
<path d="M35.3382 19.3286C35.9455 19.3286 36.4422 18.832 36.4422 18.2246C36.4422 17.6173 35.9455 17.1206 35.3382 17.1206C34.7308 17.1206 34.2341 17.6173 34.2341 18.2246C34.2341 18.832 34.7308 19.3286 35.3382 19.3286Z" fill="#F0F3F6"/>
<path d="M35.3382 16.8826C35.9455 16.8826 36.4422 16.385 36.4422 15.777C36.4422 15.169 35.9455 14.6714 35.3382 14.6714C34.7308 14.6714 34.2341 15.169 34.2341 15.777C34.2341 16.385 34.7308 16.8826 35.3382 16.8826Z" fill="#F0F3F6"/>
<path d="M35.3382 14.4343C35.9455 14.4343 36.4422 13.9376 36.4422 13.3306C36.4422 12.7232 35.9455 12.2266 35.3382 12.2266C34.7308 12.2266 34.2341 12.7232 34.2341 13.3306C34.2341 13.9376 34.7308 14.4343 35.3382 14.4343Z" fill="#F0F3F6"/>
<path d="M35.3382 11.9893C35.9455 11.9893 36.4422 11.4926 36.4422 10.8853C36.4422 10.2779 35.9455 9.78125 35.3382 9.78125C34.7308 9.78125 34.2341 10.2779 34.2341 10.8853C34.2341 11.4926 34.7308 11.9893 35.3382 11.9893Z" fill="#F0F3F6"/>
<path d="M35.3382 9.54366C35.9455 9.54366 36.4422 9.04701 36.4422 8.43964C36.4422 7.83259 35.9455 7.33594 35.3382 7.33594C34.7308 7.33594 34.2341 7.83259 34.2341 8.43964C34.2341 9.04701 34.7308 9.54366 35.3382 9.54366Z" fill="#F0F3F6"/>
<path d="M35.3382 7.09866C35.9455 7.09866 36.4422 6.60201 36.4422 5.99464C36.4422 5.38728 35.9455 4.89062 35.3382 4.89062C34.7308 4.89062 34.2341 5.38728 34.2341 5.99464C34.2341 6.60201 34.7308 7.09866 35.3382 7.09866Z" fill="#F0F3F6"/>
<path d="M32.8933 21.7736C33.5004 21.7736 33.997 21.277 33.997 20.6696C33.997 20.0626 33.5004 19.5659 32.8933 19.5659C32.286 19.5659 31.7893 20.0626 31.7893 20.6696C31.7893 21.277 32.286 21.7736 32.8933 21.7736Z" fill="#F0F3F6"/>
<path d="M32.8931 19.3286C33.5001 19.3286 33.9968 18.832 33.9968 18.2246C33.9968 17.6173 33.5001 17.1206 32.8931 17.1206C32.2857 17.1206 31.7891 17.6173 31.7891 18.2246C31.7891 18.832 32.2857 19.3286 32.8931 19.3286Z" fill="#F0F3F6"/>
<path d="M32.8931 16.8826C33.5001 16.8826 33.9968 16.385 33.9968 15.777C33.9968 15.169 33.5001 14.6714 32.8931 14.6714C32.2857 14.6714 31.7891 15.169 31.7891 15.777C31.7891 16.385 32.2857 16.8826 32.8931 16.8826Z" fill="#F0F3F6"/>
<path d="M32.8933 14.4343C33.5004 14.4343 33.997 13.9376 33.997 13.3306C33.997 12.7232 33.5004 12.2266 32.8933 12.2266C32.286 12.2266 31.7893 12.7232 31.7893 13.3306C31.7893 13.9376 32.286 14.4343 32.8933 14.4343Z" fill="#F0F3F6"/>
<path d="M32.8933 11.9893C33.5004 11.9893 33.997 11.4926 33.997 10.8853C33.997 10.2779 33.5004 9.78125 32.8933 9.78125C32.286 9.78125 31.7893 10.2779 31.7893 10.8853C31.7893 11.4926 32.286 11.9893 32.8933 11.9893Z" fill="#F0F3F6"/>
<path d="M32.8933 9.54366C33.5004 9.54366 33.997 9.04701 33.997 8.43964C33.997 7.83259 33.5004 7.33594 32.8933 7.33594C32.286 7.33594 31.7893 7.83259 31.7893 8.43964C31.7893 9.04701 32.286 9.54366 32.8933 9.54366Z" fill="#F0F3F6"/>
<path d="M32.8933 7.09866C33.5004 7.09866 33.997 6.60201 33.997 5.99464C33.997 5.38728 33.5004 4.89062 32.8933 4.89062C32.286 4.89062 31.7893 5.38728 31.7893 5.99464C31.7893 6.60201 32.286 7.09866 32.8933 7.09866Z" fill="#F0F3F6"/>
<path d="M32.8933 4.65352C33.5004 4.65352 33.997 4.15687 33.997 3.54982C33.997 2.94245 33.5004 2.4458 32.8933 2.4458C32.286 2.4458 31.7893 2.94245 31.7893 3.54982C31.7893 4.15687 32.286 4.65352 32.8933 4.65352Z" fill="#F0F3F6"/>
<path d="M30.4475 24.2188C31.0549 24.2188 31.5515 23.7221 31.5515 23.1148C31.5515 22.5074 31.0549 22.0107 30.4475 22.0107C29.8402 22.0107 29.3435 22.5074 29.3435 23.1148C29.3435 23.7221 29.8402 24.2188 30.4475 24.2188Z" fill="#F0F3F6"/>
<path d="M30.4475 21.7736C31.0549 21.7736 31.5515 21.277 31.5515 20.6696C31.5515 20.0626 31.0549 19.5659 30.4475 19.5659C29.8402 19.5659 29.3435 20.0626 29.3435 20.6696C29.3435 21.277 29.8402 21.7736 30.4475 21.7736Z" fill="#F0F3F6"/>
<path d="M30.4478 19.3286C31.0551 19.3286 31.5518 18.832 31.5518 18.2246C31.5518 17.6173 31.0551 17.1206 30.4478 17.1206C29.8404 17.1206 29.3438 17.6173 29.3438 18.2246C29.3438 18.832 29.8404 19.3286 30.4478 19.3286Z" fill="#F0F3F6"/>
<path d="M30.4478 16.8826C31.0551 16.8826 31.5518 16.385 31.5518 15.777C31.5518 15.169 31.0551 14.6714 30.4478 14.6714C29.8404 14.6714 29.3438 15.169 29.3438 15.777C29.3438 16.385 29.8404 16.8826 30.4478 16.8826Z" fill="#F0F3F6"/>
<path d="M30.4475 14.4343C31.0549 14.4343 31.5515 13.9376 31.5515 13.3306C31.5515 12.7232 31.0549 12.2266 30.4475 12.2266C29.8402 12.2266 29.3435 12.7232 29.3435 13.3306C29.3435 13.9376 29.8402 14.4343 30.4475 14.4343Z" fill="#F0F3F6"/>
<path d="M30.4475 11.9893C31.0549 11.9893 31.5515 11.4926 31.5515 10.8853C31.5515 10.2779 31.0549 9.78125 30.4475 9.78125C29.8402 9.78125 29.3435 10.2779 29.3435 10.8853C29.3435 11.4926 29.8402 11.9893 30.4475 11.9893Z" fill="#F0F3F6"/>
<path d="M30.4475 9.54366C31.0549 9.54366 31.5515 9.04701 31.5515 8.43964C31.5515 7.83259 31.0549 7.33594 30.4475 7.33594C29.8402 7.33594 29.3435 7.83259 29.3435 8.43964C29.3435 9.04701 29.8402 9.54366 30.4475 9.54366Z" fill="#F0F3F6"/>
<path d="M30.4475 7.09866C31.0549 7.09866 31.5515 6.60201 31.5515 5.99464C31.5515 5.38728 31.0549 4.89062 30.4475 4.89062C29.8402 4.89062 29.3435 5.38728 29.3435 5.99464C29.3435 6.60201 29.8402 7.09866 30.4475 7.09866Z" fill="#F0F3F6"/>
<path d="M30.4475 4.65352C31.0549 4.65352 31.5515 4.15687 31.5515 3.54982C31.5515 2.94245 31.0549 2.4458 30.4475 2.4458C29.8402 2.4458 29.3435 2.94245 29.3435 3.54982C29.3435 4.15687 29.8402 4.65352 30.4475 4.65352Z" fill="#F0F3F6"/>
<path d="M30.4475 2.20804C31.0549 2.20804 31.5515 1.71139 31.5515 1.10402C31.5515 0.49665 31.0549 0 30.4475 0C29.8402 0 29.3435 0.49665 29.3435 1.10402C29.3435 1.71139 29.8402 2.20804 30.4475 2.20804Z" fill="#F0F3F6"/>
<path d="M28.0021 26.6643C28.6095 26.6643 29.1062 26.1676 29.1062 25.5606C29.1062 24.9532 28.6095 24.4565 28.0021 24.4565C27.3951 24.4565 26.8984 24.9532 26.8984 25.5606C26.8984 26.1676 27.3951 26.6643 28.0021 26.6643Z" fill="#F0F3F6"/>
<path d="M28.0021 24.2188C28.6095 24.2188 29.1062 23.7221 29.1062 23.1148C29.1062 22.5074 28.6095 22.0107 28.0021 22.0107C27.3951 22.0107 26.8984 22.5074 26.8984 23.1148C26.8984 23.7221 27.3951 24.2188 28.0021 24.2188Z" fill="#F0F3F6"/>
<path d="M28.0021 21.7736C28.6095 21.7736 29.1062 21.277 29.1062 20.6696C29.1062 20.0626 28.6095 19.5659 28.0021 19.5659C27.3951 19.5659 26.8984 20.0626 26.8984 20.6696C26.8984 21.277 27.3951 21.7736 28.0021 21.7736Z" fill="#F0F3F6"/>
<path d="M28.0024 19.3286C28.6098 19.3286 29.1064 18.832 29.1064 18.2246C29.1064 17.6173 28.6098 17.1206 28.0024 17.1206C27.3953 17.1206 26.8987 17.6173 26.8987 18.2246C26.8987 18.832 27.3953 19.3286 28.0024 19.3286Z" fill="#F0F3F6"/>
<path d="M28.0024 16.8826C28.6098 16.8826 29.1064 16.385 29.1064 15.777C29.1064 15.169 28.6098 14.6714 28.0024 14.6714C27.3953 14.6714 26.8987 15.169 26.8987 15.777C26.8987 16.385 27.3953 16.8826 28.0024 16.8826Z" fill="#F0F3F6"/>
<path d="M28.0021 14.4343C28.6095 14.4343 29.1062 13.9376 29.1062 13.3306C29.1062 12.7232 28.6095 12.2266 28.0021 12.2266C27.3951 12.2266 26.8984 12.7232 26.8984 13.3306C26.8984 13.9376 27.3951 14.4343 28.0021 14.4343Z" fill="#F0F3F6"/>
<path d="M28.0021 11.9893C28.6095 11.9893 29.1062 11.4926 29.1062 10.8853C29.1062 10.2779 28.6095 9.78125 28.0021 9.78125C27.3951 9.78125 26.8984 10.2779 26.8984 10.8853C26.8984 11.4926 27.3951 11.9893 28.0021 11.9893Z" fill="#F0F3F6"/>
<path d="M28.0021 9.54366C28.6095 9.54366 29.1062 9.04701 29.1062 8.43964C29.1062 7.83259 28.6095 7.33594 28.0021 7.33594C27.3951 7.33594 26.8984 7.83259 26.8984 8.43964C26.8984 9.04701 27.3951 9.54366 28.0021 9.54366Z" fill="#F0F3F6"/>
<path d="M28.0021 7.09866C28.6095 7.09866 29.1062 6.60201 29.1062 5.99464C29.1062 5.38728 28.6095 4.89062 28.0021 4.89062C27.3951 4.89062 26.8984 5.38728 26.8984 5.99464C26.8984 6.60201 27.3951 7.09866 28.0021 7.09866Z" fill="#F0F3F6"/>
<path d="M28.0021 4.65352C28.6095 4.65352 29.1062 4.15687 29.1062 3.54982C29.1062 2.94245 28.6095 2.4458 28.0021 2.4458C27.3951 2.4458 26.8984 2.94245 26.8984 3.54982C26.8984 4.15687 27.3951 4.65352 28.0021 4.65352Z" fill="#F0F3F6"/>
<path d="M28.0021 2.20804C28.6095 2.20804 29.1062 1.71139 29.1062 1.10402C29.1062 0.49665 28.6095 0 28.0021 0C27.3951 0 26.8984 0.49665 26.8984 1.10402C26.8984 1.71139 27.3951 2.20804 28.0021 2.20804Z" fill="#F0F3F6"/>
<path d="M25.5569 29.1094C26.1643 29.1094 26.6609 28.6128 26.6609 28.0054C26.6609 27.398 26.1643 26.9014 25.5569 26.9014C24.9495 26.9014 24.4529 27.398 24.4529 28.0054C24.4529 28.6128 24.9495 29.1094 25.5569 29.1094Z" fill="#F0F3F6"/>
<path d="M25.5569 26.6643C26.1643 26.6643 26.6609 26.1676 26.6609 25.5606C26.6609 24.9532 26.1643 24.4565 25.5569 24.4565C24.9495 24.4565 24.4529 24.9532 24.4529 25.5606C24.4529 26.1676 24.9495 26.6643 25.5569 26.6643Z" fill="#F0F3F6"/>
<path d="M25.5569 24.2188C26.1643 24.2188 26.6609 23.7221 26.6609 23.1148C26.6609 22.5074 26.1643 22.0107 25.5569 22.0107C24.9495 22.0107 24.4529 22.5074 24.4529 23.1148C24.4529 23.7221 24.9495 24.2188 25.5569 24.2188Z" fill="#F0F3F6"/>
<path d="M25.5569 21.7736C26.1643 21.7736 26.6609 21.277 26.6609 20.6696C26.6609 20.0626 26.1643 19.5659 25.5569 19.5659C24.9495 19.5659 24.4529 20.0626 24.4529 20.6696C24.4529 21.277 24.9495 21.7736 25.5569 21.7736Z" fill="#F0F3F6"/>
<path d="M25.5569 19.3286C26.1643 19.3286 26.6609 18.832 26.6609 18.2246C26.6609 17.6173 26.1643 17.1206 25.5569 17.1206C24.9495 17.1206 24.4529 17.6173 24.4529 18.2246C24.4529 18.832 24.9495 19.3286 25.5569 19.3286Z" fill="#F0F3F6"/>
<path d="M25.5569 16.8826C26.1643 16.8826 26.6609 16.385 26.6609 15.777C26.6609 15.169 26.1643 14.6714 25.5569 14.6714C24.9495 14.6714 24.4529 15.169 24.4529 15.777C24.4529 16.385 24.9495 16.8826 25.5569 16.8826Z" fill="#F0F3F6"/>
<path d="M25.5569 14.4343C26.1643 14.4343 26.6609 13.9376 26.6609 13.3306C26.6609 12.7232 26.1643 12.2266 25.5569 12.2266C24.9495 12.2266 24.4529 12.7232 24.4529 13.3306C24.4529 13.9376 24.9495 14.4343 25.5569 14.4343Z" fill="#F0F3F6"/>
<path d="M25.5569 11.9893C26.1643 11.9893 26.6609 11.4926 26.6609 10.8853C26.6609 10.2779 26.1643 9.78125 25.5569 9.78125C24.9495 9.78125 24.4529 10.2779 24.4529 10.8853C24.4529 11.4926 24.9495 11.9893 25.5569 11.9893Z" fill="#F0F3F6"/>
<path d="M25.5569 9.54366C26.1643 9.54366 26.6609 9.04701 26.6609 8.43964C26.6609 7.83259 26.1643 7.33594 25.5569 7.33594C24.9495 7.33594 24.4529 7.83259 24.4529 8.43964C24.4529 9.04701 24.9495 9.54366 25.5569 9.54366Z" fill="#F0F3F6"/>
<path d="M25.5569 7.09866C26.1643 7.09866 26.6609 6.60201 26.6609 5.99464C26.6609 5.38728 26.1643 4.89062 25.5569 4.89062C24.9495 4.89062 24.4529 5.38728 24.4529 5.99464C24.4529 6.60201 24.9495 7.09866 25.5569 7.09866Z" fill="#F0F3F6"/>
<path d="M25.5569 4.65352C26.1643 4.65352 26.6609 4.15687 26.6609 3.54982C26.6609 2.94245 26.1643 2.4458 25.5569 2.4458C24.9495 2.4458 24.4529 2.94245 24.4529 3.54982C24.4529 4.15687 24.9495 4.65352 25.5569 4.65352Z" fill="#F0F3F6"/>
<path d="M25.5569 2.20804C26.1643 2.20804 26.6609 1.71139 26.6609 1.10402C26.6609 0.49665 26.1643 0 25.5569 0C24.9495 0 24.4529 0.49665 24.4529 1.10402C24.4529 1.71139 24.9495 2.20804 25.5569 2.20804Z" fill="#F0F3F6"/>
<path d="M23.1121 31.5549C23.7191 31.5549 24.2158 31.0582 24.2158 30.4509C24.2158 29.8438 23.7191 29.3472 23.1121 29.3472C22.5047 29.3472 22.0081 29.8438 22.0081 30.4509C22.0081 31.0582 22.5047 31.5549 23.1121 31.5549Z" fill="#F0F3F6"/>
<path d="M23.1121 29.1094C23.7191 29.1094 24.2158 28.6128 24.2158 28.0054C24.2158 27.398 23.7191 26.9014 23.1121 26.9014C22.5047 26.9014 22.0081 27.398 22.0081 28.0054C22.0081 28.6128 22.5047 29.1094 23.1121 29.1094Z" fill="#F0F3F6"/>
<path d="M23.1121 26.6643C23.7191 26.6643 24.2158 26.1676 24.2158 25.5606C24.2158 24.9532 23.7191 24.4565 23.1121 24.4565C22.5047 24.4565 22.0081 24.9532 22.0081 25.5606C22.0081 26.1676 22.5047 26.6643 23.1121 26.6643Z" fill="#F0F3F6"/>
<path d="M23.1121 24.2188C23.7191 24.2188 24.2158 23.7221 24.2158 23.1148C24.2158 22.5074 23.7191 22.0107 23.1121 22.0107C22.5047 22.0107 22.0081 22.5074 22.0081 23.1148C22.0081 23.7221 22.5047 24.2188 23.1121 24.2188Z" fill="#F0F3F6"/>
<path d="M23.1121 21.7736C23.7191 21.7736 24.2158 21.277 24.2158 20.6696C24.2158 20.0626 23.7191 19.5659 23.1121 19.5659C22.5047 19.5659 22.0081 20.0626 22.0081 20.6696C22.0081 21.277 22.5047 21.7736 23.1121 21.7736Z" fill="#F0F3F6"/>
<path d="M23.1118 19.3286C23.7189 19.3286 24.2155 18.832 24.2155 18.2246C24.2155 17.6173 23.7189 17.1206 23.1118 17.1206C22.5045 17.1206 22.0078 17.6173 22.0078 18.2246C22.0078 18.832 22.5045 19.3286 23.1118 19.3286Z" fill="#F0F3F6"/>
<path d="M23.1118 16.8826C23.7189 16.8826 24.2155 16.385 24.2155 15.777C24.2155 15.169 23.7189 14.6714 23.1118 14.6714C22.5045 14.6714 22.0078 15.169 22.0078 15.777C22.0078 16.385 22.5045 16.8826 23.1118 16.8826Z" fill="#F0F3F6"/>
<path d="M23.1121 14.4343C23.7191 14.4343 24.2158 13.9376 24.2158 13.3306C24.2158 12.7232 23.7191 12.2266 23.1121 12.2266C22.5047 12.2266 22.0081 12.7232 22.0081 13.3306C22.0081 13.9376 22.5047 14.4343 23.1121 14.4343Z" fill="#F0F3F6"/>
<path d="M23.1121 11.9893C23.7191 11.9893 24.2158 11.4926 24.2158 10.8853C24.2158 10.2779 23.7191 9.78125 23.1121 9.78125C22.5047 9.78125 22.0081 10.2779 22.0081 10.8853C22.0081 11.4926 22.5047 11.9893 23.1121 11.9893Z" fill="#F0F3F6"/>
<path d="M23.1121 9.54366C23.7191 9.54366 24.2158 9.04701 24.2158 8.43964C24.2158 7.83259 23.7191 7.33594 23.1121 7.33594C22.5047 7.33594 22.0081 7.83259 22.0081 8.43964C22.0081 9.04701 22.5047 9.54366 23.1121 9.54366Z" fill="#F0F3F6"/>
<path d="M23.1121 7.09866C23.7191 7.09866 24.2158 6.60201 24.2158 5.99464C24.2158 5.38728 23.7191 4.89062 23.1121 4.89062C22.5047 4.89062 22.0081 5.38728 22.0081 5.99464C22.0081 6.60201 22.5047 7.09866 23.1121 7.09866Z" fill="#F0F3F6"/>
<path d="M23.1121 4.65352C23.7191 4.65352 24.2158 4.15687 24.2158 3.54982C24.2158 2.94245 23.7191 2.4458 23.1121 2.4458C22.5047 2.4458 22.0081 2.94245 22.0081 3.54982C22.0081 4.15687 22.5047 4.65352 23.1121 4.65352Z" fill="#F0F3F6"/>
<path d="M20.6663 34C21.2736 34 21.7703 33.5034 21.7703 32.896C21.7703 32.2886 21.2736 31.792 20.6663 31.792C20.0589 31.792 19.5623 32.2886 19.5623 32.896C19.5623 33.5034 20.0589 34 20.6663 34Z" fill="#F0F3F6"/>
<path d="M20.6663 31.5549C21.2736 31.5549 21.7703 31.0582 21.7703 30.4509C21.7703 29.8438 21.2736 29.3472 20.6663 29.3472C20.0589 29.3472 19.5623 29.8438 19.5623 30.4509C19.5623 31.0582 20.0589 31.5549 20.6663 31.5549Z" fill="#F0F3F6"/>
<path d="M20.6663 29.1094C21.2736 29.1094 21.7703 28.6128 21.7703 28.0054C21.7703 27.398 21.2736 26.9014 20.6663 26.9014C20.0589 26.9014 19.5623 27.398 19.5623 28.0054C19.5623 28.6128 20.0589 29.1094 20.6663 29.1094Z" fill="#F0F3F6"/>
<path d="M20.6663 26.6643C21.2736 26.6643 21.7703 26.1676 21.7703 25.5606C21.7703 24.9532 21.2736 24.4565 20.6663 24.4565C20.0589 24.4565 19.5623 24.9532 19.5623 25.5606C19.5623 26.1676 20.0589 26.6643 20.6663 26.6643Z" fill="#F0F3F6"/>
<path d="M20.6663 24.2188C21.2736 24.2188 21.7703 23.7221 21.7703 23.1148C21.7703 22.5074 21.2736 22.0107 20.6663 22.0107C20.0589 22.0107 19.5623 22.5074 19.5623 23.1148C19.5623 23.7221 20.0589 24.2188 20.6663 24.2188Z" fill="#F0F3F6"/>
<path d="M20.6663 21.7736C21.2736 21.7736 21.7703 21.277 21.7703 20.6696C21.7703 20.0626 21.2736 19.5659 20.6663 19.5659C20.0589 19.5659 19.5623 20.0626 19.5623 20.6696C19.5623 21.277 20.0589 21.7736 20.6663 21.7736Z" fill="#F0F3F6"/>
<path d="M20.6665 19.3286C21.2739 19.3286 21.7705 18.832 21.7705 18.2246C21.7705 17.6173 21.2739 17.1206 20.6665 17.1206C20.0592 17.1206 19.5625 17.6173 19.5625 18.2246C19.5625 18.832 20.0592 19.3286 20.6665 19.3286Z" fill="#F0F3F6"/>
<path d="M20.6665 16.8826C21.2739 16.8826 21.7705 16.385 21.7705 15.777C21.7705 15.169 21.2739 14.6714 20.6665 14.6714C20.0592 14.6714 19.5625 15.169 19.5625 15.777C19.5625 16.385 20.0592 16.8826 20.6665 16.8826Z" fill="#F0F3F6"/>
<path d="M20.6663 14.4343C21.2736 14.4343 21.7703 13.9376 21.7703 13.3306C21.7703 12.7232 21.2736 12.2266 20.6663 12.2266C20.0589 12.2266 19.5623 12.7232 19.5623 13.3306C19.5623 13.9376 20.0589 14.4343 20.6663 14.4343Z" fill="#F0F3F6"/>
<path d="M20.6663 11.9893C21.2736 11.9893 21.7703 11.4926 21.7703 10.8853C21.7703 10.2779 21.2736 9.78125 20.6663 9.78125C20.0589 9.78125 19.5623 10.2779 19.5623 10.8853C19.5623 11.4926 20.0589 11.9893 20.6663 11.9893Z" fill="#F0F3F6"/>
<path d="M20.6663 9.54366C21.2736 9.54366 21.7703 9.04701 21.7703 8.43964C21.7703 7.83259 21.2736 7.33594 20.6663 7.33594C20.0589 7.33594 19.5623 7.83259 19.5623 8.43964C19.5623 9.04701 20.0589 9.54366 20.6663 9.54366Z" fill="#F0F3F6"/>
<path d="M20.6663 7.09866C21.2736 7.09866 21.7703 6.60201 21.7703 5.99464C21.7703 5.38728 21.2736 4.89062 20.6663 4.89062C20.0589 4.89062 19.5623 5.38728 19.5623 5.99464C19.5623 6.60201 20.0589 7.09866 20.6663 7.09866Z" fill="#F0F3F6"/>
<path d="M18.2209 34C18.8283 34 19.3249 33.5034 19.3249 32.896C19.3249 32.2886 18.8283 31.792 18.2209 31.792C17.6138 31.792 17.1172 32.2886 17.1172 32.896C17.1172 33.5034 17.6138 34 18.2209 34Z" fill="#F0F3F6"/>
<path d="M18.2209 31.5549C18.8283 31.5549 19.3249 31.0582 19.3249 30.4509C19.3249 29.8438 18.8283 29.3472 18.2209 29.3472C17.6138 29.3472 17.1172 29.8438 17.1172 30.4509C17.1172 31.0582 17.6138 31.5549 18.2209 31.5549Z" fill="#F0F3F6"/>
<path d="M18.2209 29.1094C18.8283 29.1094 19.3249 28.6128 19.3249 28.0054C19.3249 27.398 18.8283 26.9014 18.2209 26.9014C17.6138 26.9014 17.1172 27.398 17.1172 28.0054C17.1172 28.6128 17.6138 29.1094 18.2209 29.1094Z" fill="#F0F3F6"/>
<path d="M18.2209 26.6643C18.8283 26.6643 19.3249 26.1676 19.3249 25.5606C19.3249 24.9532 18.8283 24.4565 18.2209 24.4565C17.6138 24.4565 17.1172 24.9532 17.1172 25.5606C17.1172 26.1676 17.6138 26.6643 18.2209 26.6643Z" fill="#F0F3F6"/>
<path d="M18.2209 24.2188C18.8283 24.2188 19.3249 23.7221 19.3249 23.1148C19.3249 22.5074 18.8283 22.0107 18.2209 22.0107C17.6138 22.0107 17.1172 22.5074 17.1172 23.1148C17.1172 23.7221 17.6138 24.2188 18.2209 24.2188Z" fill="#F0F3F6"/>
<path d="M18.2209 21.7736C18.8283 21.7736 19.3249 21.277 19.3249 20.6696C19.3249 20.0626 18.8283 19.5659 18.2209 19.5659C17.6138 19.5659 17.1172 20.0626 17.1172 20.6696C17.1172 21.277 17.6138 21.7736 18.2209 21.7736Z" fill="#F0F3F6"/>
<path d="M18.2209 19.3286C18.8283 19.3286 19.3249 18.832 19.3249 18.2246C19.3249 17.6173 18.8283 17.1206 18.2209 17.1206C17.6138 17.1206 17.1172 17.6173 17.1172 18.2246C17.1172 18.832 17.6138 19.3286 18.2209 19.3286Z" fill="#F0F3F6"/>
<path d="M18.2209 16.8826C18.8283 16.8826 19.3249 16.385 19.3249 15.777C19.3249 15.169 18.8283 14.6714 18.2209 14.6714C17.6138 14.6714 17.1172 15.169 17.1172 15.777C17.1172 16.385 17.6138 16.8826 18.2209 16.8826Z" fill="#F0F3F6"/>
<path d="M18.2209 14.4343C18.8283 14.4343 19.3249 13.9376 19.3249 13.3306C19.3249 12.7232 18.8283 12.2266 18.2209 12.2266C17.6138 12.2266 17.1172 12.7232 17.1172 13.3306C17.1172 13.9376 17.6138 14.4343 18.2209 14.4343Z" fill="#F0F3F6"/>
<path d="M18.2209 11.9893C18.8283 11.9893 19.3249 11.4926 19.3249 10.8853C19.3249 10.2779 18.8283 9.78125 18.2209 9.78125C17.6138 9.78125 17.1172 10.2779 17.1172 10.8853C17.1172 11.4926 17.6138 11.9893 18.2209 11.9893Z" fill="#F0F3F6"/>
<path d="M18.2209 9.54366C18.8283 9.54366 19.3249 9.04701 19.3249 8.43964C19.3249 7.83259 18.8283 7.33594 18.2209 7.33594C17.6138 7.33594 17.1172 7.83259 17.1172 8.43964C17.1172 9.04701 17.6138 9.54366 18.2209 9.54366Z" fill="#F0F3F6"/>
<path d="M18.2209 7.09866C18.8283 7.09866 19.3249 6.60201 19.3249 5.99464C19.3249 5.38728 18.8283 4.89062 18.2209 4.89062C17.6138 4.89062 17.1172 5.38728 17.1172 5.99464C17.1172 6.60201 17.6138 7.09866 18.2209 7.09866Z" fill="#F0F3F6"/>
<path d="M15.7757 31.5549C16.383 31.5549 16.8797 31.0582 16.8797 30.4509C16.8797 29.8438 16.383 29.3472 15.7757 29.3472C15.1683 29.3472 14.6716 29.8438 14.6716 30.4509C14.6716 31.0582 15.1683 31.5549 15.7757 31.5549Z" fill="#F0F3F6"/>
<path d="M15.7757 29.1094C16.383 29.1094 16.8797 28.6128 16.8797 28.0054C16.8797 27.398 16.383 26.9014 15.7757 26.9014C15.1683 26.9014 14.6716 27.398 14.6716 28.0054C14.6716 28.6128 15.1683 29.1094 15.7757 29.1094Z" fill="#F0F3F6"/>
<path d="M15.7757 26.6643C16.383 26.6643 16.8797 26.1676 16.8797 25.5606C16.8797 24.9532 16.383 24.4565 15.7757 24.4565C15.1683 24.4565 14.6716 24.9532 14.6716 25.5606C14.6716 26.1676 15.1683 26.6643 15.7757 26.6643Z" fill="#F0F3F6"/>
<path d="M15.7757 24.2188C16.383 24.2188 16.8797 23.7221 16.8797 23.1148C16.8797 22.5074 16.383 22.0107 15.7757 22.0107C15.1683 22.0107 14.6716 22.5074 14.6716 23.1148C14.6716 23.7221 15.1683 24.2188 15.7757 24.2188Z" fill="#F0F3F6"/>
<path d="M15.7757 21.7736C16.383 21.7736 16.8797 21.277 16.8797 20.6696C16.8797 20.0626 16.383 19.5659 15.7757 19.5659C15.1683 19.5659 14.6716 20.0626 14.6716 20.6696C14.6716 21.277 15.1683 21.7736 15.7757 21.7736Z" fill="#F0F3F6"/>
<path d="M15.7757 19.3286C16.383 19.3286 16.8797 18.832 16.8797 18.2246C16.8797 17.6173 16.383 17.1206 15.7757 17.1206C15.1683 17.1206 14.6716 17.6173 14.6716 18.2246C14.6716 18.832 15.1683 19.3286 15.7757 19.3286Z" fill="#F0F3F6"/>
<path d="M15.7757 16.8826C16.383 16.8826 16.8797 16.385 16.8797 15.777C16.8797 15.169 16.383 14.6714 15.7757 14.6714C15.1683 14.6714 14.6716 15.169 14.6716 15.777C14.6716 16.385 15.1683 16.8826 15.7757 16.8826Z" fill="#F0F3F6"/>
<path d="M15.7757 14.4343C16.383 14.4343 16.8797 13.9376 16.8797 13.3306C16.8797 12.7232 16.383 12.2266 15.7757 12.2266C15.1683 12.2266 14.6716 12.7232 14.6716 13.3306C14.6716 13.9376 15.1683 14.4343 15.7757 14.4343Z" fill="#F0F3F6"/>
<path d="M15.7757 11.9893C16.383 11.9893 16.8797 11.4926 16.8797 10.8853C16.8797 10.2779 16.383 9.78125 15.7757 9.78125C15.1683 9.78125 14.6716 10.2779 14.6716 10.8853C14.6716 11.4926 15.1683 11.9893 15.7757 11.9893Z" fill="#F0F3F6"/>
<path d="M15.7757 9.54366C16.383 9.54366 16.8797 9.04701 16.8797 8.43964C16.8797 7.83259 16.383 7.33594 15.7757 7.33594C15.1683 7.33594 14.6716 7.83259 14.6716 8.43964C14.6716 9.04701 15.1683 9.54366 15.7757 9.54366Z" fill="#F0F3F6"/>
<path d="M15.7757 7.09866C16.383 7.09866 16.8797 6.60201 16.8797 5.99464C16.8797 5.38728 16.383 4.89062 15.7757 4.89062C15.1683 4.89062 14.6716 5.38728 14.6716 5.99464C14.6716 6.60201 15.1683 7.09866 15.7757 7.09866Z" fill="#F0F3F6"/>
<path d="M15.7757 4.65352C16.383 4.65352 16.8797 4.15687 16.8797 3.54982C16.8797 2.94245 16.383 2.4458 15.7757 2.4458C15.1683 2.4458 14.6716 2.94245 14.6716 3.54982C14.6716 4.15687 15.1683 4.65352 15.7757 4.65352Z" fill="#F0F3F6"/>
<path d="M13.3308 29.1094C13.9379 29.1094 14.4345 28.6128 14.4345 28.0054C14.4345 27.398 13.9379 26.9014 13.3308 26.9014C12.7235 26.9014 12.2268 27.398 12.2268 28.0054C12.2268 28.6128 12.7235 29.1094 13.3308 29.1094Z" fill="#F0F3F6"/>
<path d="M13.3308 26.6643C13.9379 26.6643 14.4345 26.1676 14.4345 25.5606C14.4345 24.9532 13.9379 24.4565 13.3308 24.4565C12.7235 24.4565 12.2268 24.9532 12.2268 25.5606C12.2268 26.1676 12.7235 26.6643 13.3308 26.6643Z" fill="#F0F3F6"/>
<path d="M13.3308 24.2188C13.9379 24.2188 14.4345 23.7221 14.4345 23.1148C14.4345 22.5074 13.9379 22.0107 13.3308 22.0107C12.7235 22.0107 12.2268 22.5074 12.2268 23.1148C12.2268 23.7221 12.7235 24.2188 13.3308 24.2188Z" fill="#F0F3F6"/>
<path d="M13.3308 21.7736C13.9379 21.7736 14.4345 21.277 14.4345 20.6696C14.4345 20.0626 13.9379 19.5659 13.3308 19.5659C12.7235 19.5659 12.2268 20.0626 12.2268 20.6696C12.2268 21.277 12.7235 21.7736 13.3308 21.7736Z" fill="#F0F3F6"/>
<path d="M13.3306 19.3286C13.9376 19.3286 14.4343 18.832 14.4343 18.2246C14.4343 17.6173 13.9376 17.1206 13.3306 17.1206C12.7232 17.1206 12.2266 17.6173 12.2266 18.2246C12.2266 18.832 12.7232 19.3286 13.3306 19.3286Z" fill="#F0F3F6"/>
<path d="M13.3306 16.8826C13.9376 16.8826 14.4343 16.385 14.4343 15.777C14.4343 15.169 13.9376 14.6714 13.3306 14.6714C12.7232 14.6714 12.2266 15.169 12.2266 15.777C12.2266 16.385 12.7232 16.8826 13.3306 16.8826Z" fill="#F0F3F6"/>
<path d="M13.3308 14.4343C13.9379 14.4343 14.4345 13.9376 14.4345 13.3306C14.4345 12.7232 13.9379 12.2266 13.3308 12.2266C12.7235 12.2266 12.2268 12.7232 12.2268 13.3306C12.2268 13.9376 12.7235 14.4343 13.3308 14.4343Z" fill="#F0F3F6"/>
<path d="M13.3308 11.9893C13.9379 11.9893 14.4345 11.4926 14.4345 10.8853C14.4345 10.2779 13.9379 9.78125 13.3308 9.78125C12.7235 9.78125 12.2268 10.2779 12.2268 10.8853C12.2268 11.4926 12.7235 11.9893 13.3308 11.9893Z" fill="#F0F3F6"/>
<path d="M13.3308 9.54366C13.9379 9.54366 14.4345 9.04701 14.4345 8.43964C14.4345 7.83259 13.9379 7.33594 13.3308 7.33594C12.7235 7.33594 12.2268 7.83259 12.2268 8.43964C12.2268 9.04701 12.7235 9.54366 13.3308 9.54366Z" fill="#F0F3F6"/>
<path d="M13.3308 7.09866C13.9379 7.09866 14.4345 6.60201 14.4345 5.99464C14.4345 5.38728 13.9379 4.89062 13.3308 4.89062C12.7235 4.89062 12.2268 5.38728 12.2268 5.99464C12.2268 6.60201 12.7235 7.09866 13.3308 7.09866Z" fill="#F0F3F6"/>
<path d="M13.3308 4.65352C13.9379 4.65352 14.4345 4.15687 14.4345 3.54982C14.4345 2.94245 13.9379 2.4458 13.3308 2.4458C12.7235 2.4458 12.2268 2.94245 12.2268 3.54982C12.2268 4.15687 12.7235 4.65352 13.3308 4.65352Z" fill="#F0F3F6"/>
<path d="M13.3308 2.20804C13.9379 2.20804 14.4345 1.71139 14.4345 1.10402C14.4345 0.49665 13.9379 0 13.3308 0C12.7235 0 12.2268 0.49665 12.2268 1.10402C12.2268 1.71139 12.7235 2.20804 13.3308 2.20804Z" fill="#F0F3F6"/>
<path d="M10.885 26.6643C11.4924 26.6643 11.989 26.1676 11.989 25.5606C11.989 24.9532 11.4924 24.4565 10.885 24.4565C10.2777 24.4565 9.78101 24.9532 9.78101 25.5606C9.78101 26.1676 10.2777 26.6643 10.885 26.6643Z" fill="#F0F3F6"/>
<path d="M10.885 24.2188C11.4924 24.2188 11.989 23.7221 11.989 23.1148C11.989 22.5074 11.4924 22.0107 10.885 22.0107C10.2777 22.0107 9.78101 22.5074 9.78101 23.1148C9.78101 23.7221 10.2777 24.2188 10.885 24.2188Z" fill="#F0F3F6"/>
<path d="M10.885 21.7736C11.4924 21.7736 11.989 21.277 11.989 20.6696C11.989 20.0626 11.4924 19.5659 10.885 19.5659C10.2777 19.5659 9.78101 20.0626 9.78101 20.6696C9.78101 21.277 10.2777 21.7736 10.885 21.7736Z" fill="#F0F3F6"/>
<path d="M10.8853 19.3286C11.4926 19.3286 11.9893 18.832 11.9893 18.2246C11.9893 17.6173 11.4926 17.1206 10.8853 17.1206C10.2779 17.1206 9.78125 17.6173 9.78125 18.2246C9.78125 18.832 10.2779 19.3286 10.8853 19.3286Z" fill="#F0F3F6"/>
<path d="M10.8853 16.8826C11.4926 16.8826 11.9893 16.385 11.9893 15.777C11.9893 15.169 11.4926 14.6714 10.8853 14.6714C10.2779 14.6714 9.78125 15.169 9.78125 15.777C9.78125 16.385 10.2779 16.8826 10.8853 16.8826Z" fill="#F0F3F6"/>
<path d="M10.885 14.4343C11.4924 14.4343 11.989 13.9376 11.989 13.3306C11.989 12.7232 11.4924 12.2266 10.885 12.2266C10.2777 12.2266 9.78101 12.7232 9.78101 13.3306C9.78101 13.9376 10.2777 14.4343 10.885 14.4343Z" fill="#F0F3F6"/>
<path d="M10.885 11.9893C11.4924 11.9893 11.989 11.4926 11.989 10.8853C11.989 10.2779 11.4924 9.78125 10.885 9.78125C10.2777 9.78125 9.78101 10.2779 9.78101 10.8853C9.78101 11.4926 10.2777 11.9893 10.885 11.9893Z" fill="#F0F3F6"/>
<path d="M10.885 9.54366C11.4924 9.54366 11.989 9.04701 11.989 8.43964C11.989 7.83259 11.4924 7.33594 10.885 7.33594C10.2777 7.33594 9.78101 7.83259 9.78101 8.43964C9.78101 9.04701 10.2777 9.54366 10.885 9.54366Z" fill="#F0F3F6"/>
<path d="M10.885 7.09866C11.4924 7.09866 11.989 6.60201 11.989 5.99464C11.989 5.38728 11.4924 4.89062 10.885 4.89062C10.2777 4.89062 9.78101 5.38728 9.78101 5.99464C9.78101 6.60201 10.2777 7.09866 10.885 7.09866Z" fill="#F0F3F6"/>
<path d="M10.885 4.65352C11.4924 4.65352 11.989 4.15687 11.989 3.54982C11.989 2.94245 11.4924 2.4458 10.885 2.4458C10.2777 2.4458 9.78101 2.94245 9.78101 3.54982C9.78101 4.15687 10.2777 4.65352 10.885 4.65352Z" fill="#F0F3F6"/>
<path d="M10.885 2.20804C11.4924 2.20804 11.989 1.71139 11.989 1.10402C11.989 0.49665 11.4924 0 10.885 0C10.2777 0 9.78101 0.49665 9.78101 1.10402C9.78101 1.71139 10.2777 2.20804 10.885 2.20804Z" fill="#F0F3F6"/>
<path d="M8.43988 24.2188C9.04725 24.2188 9.5439 23.7221 9.5439 23.1148C9.5439 22.5074 9.04725 22.0107 8.43988 22.0107C7.83283 22.0107 7.33618 22.5074 7.33618 23.1148C7.33618 23.7221 7.83283 24.2188 8.43988 24.2188Z" fill="#F0F3F6"/>
<path d="M8.43988 21.7736C9.04725 21.7736 9.5439 21.277 9.5439 20.6696C9.5439 20.0626 9.04725 19.5659 8.43988 19.5659C7.83283 19.5659 7.33618 20.0626 7.33618 20.6696C7.33618 21.277 7.83283 21.7736 8.43988 21.7736Z" fill="#F0F3F6"/>
<path d="M8.43988 19.3286C9.04725 19.3286 9.5439 18.832 9.5439 18.2246C9.5439 17.6173 9.04725 17.1206 8.43988 17.1206C7.83283 17.1206 7.33618 17.6173 7.33618 18.2246C7.33618 18.832 7.83283 19.3286 8.43988 19.3286Z" fill="#F0F3F6"/>
<path d="M8.43988 16.8826C9.04725 16.8826 9.5439 16.385 9.5439 15.777C9.5439 15.169 9.04725 14.6714 8.43988 14.6714C7.83283 14.6714 7.33618 15.169 7.33618 15.777C7.33618 16.385 7.83283 16.8826 8.43988 16.8826Z" fill="#F0F3F6"/>
<path d="M8.43988 14.4343C9.04725 14.4343 9.5439 13.9376 9.5439 13.3306C9.5439 12.7232 9.04725 12.2266 8.43988 12.2266C7.83283 12.2266 7.33618 12.7232 7.33618 13.3306C7.33618 13.9376 7.83283 14.4343 8.43988 14.4343Z" fill="#F0F3F6"/>
<path d="M8.43988 11.9893C9.04725 11.9893 9.5439 11.4926 9.5439 10.8853C9.5439 10.2779 9.04725 9.78125 8.43988 9.78125C7.83283 9.78125 7.33618 10.2779 7.33618 10.8853C7.33618 11.4926 7.83283 11.9893 8.43988 11.9893Z" fill="#F0F3F6"/>
<path d="M8.43988 9.54366C9.04725 9.54366 9.5439 9.04701 9.5439 8.43964C9.5439 7.83259 9.04725 7.33594 8.43988 7.33594C7.83283 7.33594 7.33618 7.83259 7.33618 8.43964C7.33618 9.04701 7.83283 9.54366 8.43988 9.54366Z" fill="#F0F3F6"/>
<path d="M8.43988 7.09866C9.04725 7.09866 9.5439 6.60201 9.5439 5.99464C9.5439 5.38728 9.04725 4.89062 8.43988 4.89062C7.83283 4.89062 7.33618 5.38728 7.33618 5.99464C7.33618 6.60201 7.83283 7.09866 8.43988 7.09866Z" fill="#F0F3F6"/>
<path d="M8.43988 4.65352C9.04725 4.65352 9.5439 4.15687 9.5439 3.54982C9.5439 2.94245 9.04725 2.4458 8.43988 2.4458C7.83283 2.4458 7.33618 2.94245 7.33618 3.54982C7.33618 4.15687 7.83283 4.65352 8.43988 4.65352Z" fill="#F0F3F6"/>
<path d="M8.43988 2.20804C9.04725 2.20804 9.5439 1.71139 9.5439 1.10402C9.5439 0.49665 9.04725 0 8.43988 0C7.83283 0 7.33618 0.49665 7.33618 1.10402C7.33618 1.71139 7.83283 2.20804 8.43988 2.20804Z" fill="#F0F3F6"/>
<path d="M5.99464 21.7736C6.60201 21.7736 7.09866 21.277 7.09866 20.6696C7.09866 20.0626 6.60201 19.5659 5.99464 19.5659C5.38728 19.5659 4.89062 20.0626 4.89062 20.6696C4.89062 21.277 5.38728 21.7736 5.99464 21.7736Z" fill="#F0F3F6"/>
<path d="M5.9944 19.3286C6.60177 19.3286 7.09842 18.832 7.09842 18.2246C7.09842 17.6173 6.60177 17.1206 5.9944 17.1206C5.38703 17.1206 4.89038 17.6173 4.89038 18.2246C4.89038 18.832 5.38703 19.3286 5.9944 19.3286Z" fill="#F0F3F6"/>
<path d="M5.9944 16.8826C6.60177 16.8826 7.09842 16.385 7.09842 15.777C7.09842 15.169 6.60177 14.6714 5.9944 14.6714C5.38703 14.6714 4.89038 15.169 4.89038 15.777C4.89038 16.385 5.38703 16.8826 5.9944 16.8826Z" fill="#F0F3F6"/>
<path d="M5.99464 14.4343C6.60201 14.4343 7.09866 13.9376 7.09866 13.3306C7.09866 12.7232 6.60201 12.2266 5.99464 12.2266C5.38728 12.2266 4.89062 12.7232 4.89062 13.3306C4.89062 13.9376 5.38728 14.4343 5.99464 14.4343Z" fill="#F0F3F6"/>
<path d="M5.99464 11.9893C6.60201 11.9893 7.09866 11.4926 7.09866 10.8853C7.09866 10.2779 6.60201 9.78125 5.99464 9.78125C5.38728 9.78125 4.89062 10.2779 4.89062 10.8853C4.89062 11.4926 5.38728 11.9893 5.99464 11.9893Z" fill="#F0F3F6"/>
<path d="M5.99464 9.54366C6.60201 9.54366 7.09866 9.04701 7.09866 8.43964C7.09866 7.83259 6.60201 7.33594 5.99464 7.33594C5.38728 7.33594 4.89062 7.83259 4.89062 8.43964C4.89062 9.04701 5.38728 9.54366 5.99464 9.54366Z" fill="#F0F3F6"/>
<path d="M5.99464 7.09866C6.60201 7.09866 7.09866 6.60201 7.09866 5.99464C7.09866 5.38728 6.60201 4.89062 5.99464 4.89062C5.38728 4.89062 4.89062 5.38728 4.89062 5.99464C4.89062 6.60201 5.38728 7.09866 5.99464 7.09866Z" fill="#F0F3F6"/>
<path d="M5.99464 4.65352C6.60201 4.65352 7.09866 4.15687 7.09866 3.54982C7.09866 2.94245 6.60201 2.4458 5.99464 2.4458C5.38728 2.4458 4.89062 2.94245 4.89062 3.54982C4.89062 4.15687 5.38728 4.65352 5.99464 4.65352Z" fill="#F0F3F6"/>
<path d="M3.54982 19.3286C4.15687 19.3286 4.65352 18.832 4.65352 18.2246C4.65352 17.6173 4.15687 17.1206 3.54982 17.1206C2.94245 17.1206 2.4458 17.6173 2.4458 18.2246C2.4458 18.832 2.94245 19.3286 3.54982 19.3286Z" fill="#F0F3F6"/>
<path d="M3.54982 16.8826C4.15687 16.8826 4.65352 16.385 4.65352 15.777C4.65352 15.169 4.15687 14.6714 3.54982 14.6714C2.94245 14.6714 2.4458 15.169 2.4458 15.777C2.4458 16.385 2.94245 16.8826 3.54982 16.8826Z" fill="#F0F3F6"/>
<path d="M3.54958 14.4343C4.15663 14.4343 4.65328 13.9376 4.65328 13.3306C4.65328 12.7232 4.15663 12.2266 3.54958 12.2266C2.94221 12.2266 2.44556 12.7232 2.44556 13.3306C2.44556 13.9376 2.94221 14.4343 3.54958 14.4343Z" fill="#F0F3F6"/>
<path d="M3.54958 11.9893C4.15663 11.9893 4.65328 11.4926 4.65328 10.8853C4.65328 10.2779 4.15663 9.78125 3.54958 9.78125C2.94221 9.78125 2.44556 10.2779 2.44556 10.8853C2.44556 11.4926 2.94221 11.9893 3.54958 11.9893Z" fill="#F0F3F6"/>
<path d="M3.54958 9.54366C4.15663 9.54366 4.65328 9.04701 4.65328 8.43964C4.65328 7.83259 4.15663 7.33594 3.54958 7.33594C2.94221 7.33594 2.44556 7.83259 2.44556 8.43964C2.44556 9.04701 2.94221 9.54366 3.54958 9.54366Z" fill="#F0F3F6"/>
<path d="M3.54958 7.09866C4.15663 7.09866 4.65328 6.60201 4.65328 5.99464C4.65328 5.38728 4.15663 4.89062 3.54958 4.89062C2.94221 4.89062 2.44556 5.38728 2.44556 5.99464C2.44556 6.60201 2.94221 7.09866 3.54958 7.09866Z" fill="#F0F3F6"/>
<path d="M1.10402 16.8826C1.71139 16.8826 2.20804 16.385 2.20804 15.777C2.20804 15.169 1.71139 14.6714 1.10402 14.6714C0.49665 14.6714 0 15.169 0 15.777C0 16.385 0.49665 16.8826 1.10402 16.8826Z" fill="#F0F3F6"/>
<path d="M1.10402 14.4343C1.71139 14.4343 2.20804 13.9376 2.20804 13.3306C2.20804 12.7232 1.71139 12.2266 1.10402 12.2266C0.49665 12.2266 0 12.7232 0 13.3306C0 13.9376 0.49665 14.4343 1.10402 14.4343Z" fill="#F0F3F6"/>
<path d="M1.10402 11.9893C1.71139 11.9893 2.20804 11.4926 2.20804 10.8853C2.20804 10.2779 1.71139 9.78125 1.10402 9.78125C0.49665 9.78125 0 10.2779 0 10.8853C0 11.4926 0.49665 11.9893 1.10402 11.9893Z" fill="#F0F3F6"/>
<path d="M1.10402 9.54366C1.71139 9.54366 2.20804 9.04701 2.20804 8.43964C2.20804 7.83259 1.71139 7.33594 1.10402 7.33594C0.49665 7.33594 0 7.83259 0 8.43964C0 9.04701 0.49665 9.54366 1.10402 9.54366Z" fill="#F0F3F6"/>
</svg>
