<svg width="90" height="76" viewBox="0 0 90 76" fill="none" xmlns="http://www.w3.org/2000/svg">
<path d="M26.7861 52.0649H66.3829V52.0649C66.3829 65.2839 55.6668 76 42.4478 76H26.7861V52.0649Z" fill="#181213"/>
<path fill-rule="evenodd" clip-rule="evenodd" d="M66.3829 52.0649H26.7861V76H42.4478C54.881 76 65.1 66.5201 66.271 54.3941C66.345 53.6277 66.3829 52.8508 66.3829 52.0649ZM63.9296 54.3941H29.1154V73.6708H42.4478C53.5935 73.6708 62.768 65.2313 63.9296 54.3941Z" fill="#F0F3F7"/>
<path d="M6.98767 58.0096C6.98767 59.9922 5.43064 61.6002 3.5072 61.6077H3.48046C1.55702 61.6002 0 59.9922 0 58.0096C0 56.0224 1.56424 54.4115 3.49383 54.4115C5.42342 54.4115 6.98767 56.0224 6.98767 58.0096Z" fill="#F0F3F7"/>
<path d="M12.7973 54.327H32.6018C34.5314 54.327 36.1029 56.0224 36.1029 58.0096C36.1029 59.9922 34.5459 61.6002 32.6225 61.6077H32.6091C30.6795 61.6077 29.1153 63.2186 29.1153 65.2057C29.1153 67.1929 30.6795 68.8038 32.6091 68.8038H41.9308C43.8582 68.8065 45.4198 70.4164 45.4198 72.4019C45.4198 74.3891 43.8556 76 41.926 76L45.4198 76H3.489L3.49383 76C1.56424 76 0 74.3891 0 72.4019C0 70.4164 1.56163 68.8065 3.489 68.8038H12.8155C14.7429 68.8065 16.3046 70.4164 16.3046 72.4019C16.3046 74.3333 14.8269 75.9093 12.9723 75.9962C12.9187 75.9987 12.8649 76 12.8107 76H22.1276C22.0735 76 22.0196 75.9987 21.966 75.9962C20.1114 75.9093 18.6338 74.3333 18.6338 72.4019C18.6338 70.6307 19.8764 69.103 21.5128 68.8038C23.1856 68.5077 24.4568 66.9795 24.4568 65.2057C24.4568 63.2186 22.8613 61.6077 20.8931 61.6077H12.7973C10.8739 61.6002 9.31689 59.9922 9.31689 58.0096C9.31689 56.0224 10.8678 54.327 12.7973 54.327Z" fill="#F0F3F7"/>
<g clip-path="url(#clip0_189_124)">
<path fill-rule="evenodd" clip-rule="evenodd" d="M29.5884 3.88511C29.1342 3.46244 28.6489 3.06877 28.1347 2.70675C26.5167 1.56749 24.6453 0.763983 22.6274 0.342096C21.3418 0.0733168 20.0128 -0.0372151 18.6717 0.010975C17.8756 1.22927 17.2459 2.5309 16.8022 3.88115C16.1586 5.83965 15.9188 7.86206 16.0964 9.83293C16.2642 11.6944 16.8013 13.4755 17.6792 15.0857C17.3821 15.654 17.1074 16.2341 16.8557 16.8248C15.5775 19.8247 14.9197 23.0399 14.9197 26.2869L40.3529 26.2869H65.7861C65.7861 23.0399 65.1283 19.8247 63.8501 16.8248C63.617 16.2776 63.3641 15.7396 63.092 15.2116C64.0098 13.5709 64.5695 11.7477 64.7404 9.83961C64.9168 7.87093 64.6758 5.85049 64.0313 3.89366C63.5869 2.54457 62.9567 1.24393 62.1601 0.0264415C60.8194 -0.0225126 59.4909 0.087095 58.206 0.354812C56.189 0.77503 54.3188 1.57656 52.702 2.71363C52.1732 3.0856 51.6748 3.49108 51.2096 3.9272C50.8395 3.75733 50.4647 3.59599 50.0858 3.44339C47.0001 2.20081 43.6928 1.56126 40.3529 1.56126C37.013 1.56126 33.7057 2.20081 30.62 3.44339C30.2725 3.58334 29.9285 3.73062 29.5884 3.88511Z" fill="#181213"/>
<path fill-rule="evenodd" clip-rule="evenodd" d="M29.174 6.42684L28.1285 5.45377C27.746 5.09781 27.3363 4.76537 26.901 4.4589C25.5317 3.49478 23.9332 2.80433 22.1889 2.43965C21.4374 2.28254 20.6656 2.18733 19.8819 2.15518C19.4566 2.92923 19.1071 3.73124 18.838 4.55014C18.2817 6.24307 18.0804 7.9727 18.2307 9.64058C18.3726 11.2152 18.8256 12.7119 19.5606 14.0599L20.1083 15.0644L19.5783 16.0784C19.3073 16.5969 19.0566 17.126 18.8271 17.6648C17.9441 19.7372 17.3862 21.9211 17.1677 24.144L63.5381 24.144C63.3196 21.9211 62.7617 19.7372 61.8787 17.6648L63.8501 16.8248C64.8462 19.1627 65.4656 21.6314 65.6904 24.144C65.7541 24.8554 65.7861 25.5704 65.7861 26.2869L14.9197 26.2869C14.9197 25.5704 14.9517 24.8554 15.0154 24.144C15.2402 21.6314 15.8596 19.1627 16.8557 16.8248C17.1074 16.2341 17.3821 15.654 17.6792 15.0857C16.8013 13.4755 16.2642 11.6944 16.0964 9.83293C15.9188 7.86206 16.1586 5.83965 16.8022 3.88115C17.2459 2.5309 17.8756 1.22927 18.6717 0.010975C20.0128 -0.0372151 21.3418 0.0733168 22.6274 0.342096C24.6453 0.763983 26.5167 1.56749 28.1347 2.70675C28.6489 3.06877 29.1342 3.46244 29.5884 3.88511C29.9285 3.73062 30.2725 3.58334 30.62 3.44339C33.7057 2.20081 37.013 1.56126 40.3529 1.56126C43.6928 1.56126 47.0001 2.20081 50.0858 3.44339C50.4647 3.59599 50.8395 3.75733 51.2096 3.9272C51.6748 3.49108 52.1732 3.0856 52.702 2.71363C54.3188 1.57656 56.189 0.77503 58.206 0.354812C59.4909 0.087095 60.8194 -0.0225126 62.1601 0.0264415C62.9567 1.24393 63.5869 2.54457 64.0313 3.89366C64.6758 5.85049 64.9168 7.87093 64.7404 9.83961L62.6061 9.64841C62.7553 7.98299 62.5531 6.25544 61.9959 4.56408C61.7263 3.74552 61.3763 2.94374 60.9503 2.16986C60.1664 2.20145 59.3945 2.2961 58.643 2.45267C56.8997 2.81589 55.3025 3.50453 53.9348 4.46644C53.4873 4.78121 53.0668 5.12346 52.6752 5.49053L51.6247 6.47544L50.3158 5.87482C49.9765 5.71907 49.6329 5.57113 49.2853 5.43118C46.4551 4.29148 43.4197 3.70417 40.3529 3.70417C37.2861 3.70417 34.2507 4.29148 31.4205 5.43118C31.1018 5.55953 30.7864 5.69459 30.4745 5.83623L29.174 6.42684ZM63.092 15.2116C64.0098 13.5709 64.5695 11.7477 64.7404 9.83961L62.6061 9.64841C62.4616 11.2616 61.9896 12.7928 61.2218 14.1655L60.6599 15.1701L61.1871 16.1933C61.4354 16.675 61.6661 17.1658 61.8787 17.6648L63.8501 16.8248C63.617 16.2776 63.3641 15.7396 63.092 15.2116Z" fill="#F0F3F7"/>
<path fill-rule="evenodd" clip-rule="evenodd" d="M64.5799 26.2617H16.1318C19.5351 21.2397 29.0948 17.6226 40.3558 17.6226C51.6169 17.6226 61.1765 21.2397 64.5799 26.2617Z" fill="#F0F3F7"/>
<path fill-rule="evenodd" clip-rule="evenodd" d="M27.4801 12.7941C27.0561 13.1711 26.7336 13.7593 26.7336 14.6472H24.6189C24.6189 13.1855 25.1776 12.0115 26.0752 11.2136C26.9534 10.433 28.0944 10.0654 29.2008 10.0654C30.3072 10.0654 31.4482 10.433 32.3264 11.2136C33.224 12.0115 33.7827 13.1855 33.7827 14.6472H31.6679C31.6679 13.7593 31.3455 13.1711 30.9214 12.7941C30.4779 12.3999 29.8566 12.1801 29.2008 12.1801C28.5449 12.1801 27.9237 12.3999 27.4801 12.7941Z" fill="#F0F3F7"/>
<path fill-rule="evenodd" clip-rule="evenodd" d="M49.5673 12.7941C49.1432 13.1711 48.8208 13.7593 48.8208 14.6472H46.7061C46.7061 13.1855 47.2647 12.0115 48.1624 11.2136C49.0405 10.433 50.1815 10.0654 51.2879 10.0654C52.3944 10.0654 53.5353 10.433 54.4135 11.2136C55.3111 12.0115 55.8698 13.1855 55.8698 14.6472H53.7551C53.7551 13.7593 53.4326 13.1711 53.0086 12.7941C52.565 12.3999 51.9438 12.1801 51.2879 12.1801C50.6321 12.1801 50.0108 12.3999 49.5673 12.7941Z" fill="#F0F3F7"/>
<path d="M43.7041 17.2702C43.7041 19.2167 42.1261 20.7947 40.1796 20.7947C38.233 20.7947 36.655 19.2167 36.655 17.2702C36.655 15.3236 38.233 13.7456 40.1796 13.7456C42.1261 13.7456 43.7041 15.3236 43.7041 17.2702Z" fill="#181213"/>
</g>
<rect x="11.6459" y="25.1818" width="57.9821" height="28.0132" rx="5.82305" fill="#F0F3F7"/>
<path d="M27.3236 48.4416C27.3236 48.4416 26.5821 48.4416 25.9179 48.4416H24.4166C24.171 48.4416 23.989 48.4234 23.7888 48.4416C23.8252 48.3779 23.7888 48.3051 23.7888 48.2232C23.7888 48.1414 23.7797 48.0549 23.7615 47.9639C23.7524 47.873 23.716 47.7092 23.6523 47.4726C23.5886 47.2361 23.4886 46.8949 23.3521 46.449L22.7789 44.6202L17.7019 30.2355C18.266 30.2719 18.9848 30.2901 19.8583 30.2901C20.7317 30.2901 21.2913 30.2537 21.5369 30.1809L25.6449 42.5867L29.2479 30.2355C29.7938 30.2719 30.4671 30.2901 31.2678 30.2901C32.3596 30.2901 32.9965 30.2537 33.1785 30.1809L28.1971 44.5793C28.1971 44.5793 28.0378 45.1115 27.7194 46.1761C27.4555 47.0859 27.3236 47.6773 27.3236 47.9503C27.3236 48.2141 27.2872 48.3688 27.3236 48.4416Z" fill="#FF653E"/>
<path d="M35.8033 30.1809C37.068 30.0171 38.3646 29.9352 39.6929 29.9352C42.1677 29.9352 44.0466 30.5175 45.3295 31.6821C46.6215 32.8376 47.2675 34.5709 47.2675 36.8819C47.2675 38.9473 46.5623 40.5805 45.1521 41.7815C43.8328 42.9097 42.1359 43.4738 40.0614 43.4738C39.8249 43.4738 39.5656 43.4602 39.2835 43.4329V48.428H35.8033V30.1809ZM40.1024 33.2243C39.8294 33.2243 39.5565 33.2334 39.2835 33.2516V40.4304C39.5747 40.4668 39.9295 40.4849 40.348 40.4849C40.7666 40.4849 41.2033 40.3985 41.6582 40.2256C42.1131 40.0437 42.4953 39.7935 42.8046 39.475C43.4506 38.8108 43.7736 37.9374 43.7736 36.8546C43.7736 34.4344 42.5499 33.2243 40.1024 33.2243Z" fill="#FF653E"/>
<path d="M49.9788 48.428C50.0334 48.1186 50.0607 47.782 50.0607 47.418V30.2764H52.7903L60.0236 41.6587V31.2045C60.0236 30.704 59.9781 30.3947 59.8871 30.2764H63.572C63.5265 30.6403 63.5038 31.0407 63.5038 31.4774V48.428H60.665L53.5409 37.4961V48.428H49.9788Z" fill="#FF653E"/>
<rect x="11.6459" y="25.1818" width="57.9821" height="28.0132" rx="5.82305" stroke="#FF653E" stroke-width="2.32922" stroke-miterlimit="2.28301" stroke-linejoin="round"/>
<g clip-path="url(#clip1_189_124)">
<path d="M71.5749 27.8507C71.6826 27.8128 71.7885 27.7974 71.8876 27.7976L71.0623 28.2955C71.0865 28.2471 71.12 28.192 71.1662 28.1355C71.2453 28.039 71.3779 27.9199 71.5749 27.8507ZM70.9496 28.0639C70.9719 28.1744 70.9851 28.2661 70.9923 28.3377L70.5836 28.5843C70.5693 28.5388 70.5611 28.498 70.5567 28.465C70.5449 28.3782 70.555 28.3237 70.5556 28.3204C70.5559 28.3187 70.543 28.3766 70.4814 28.5098C70.3626 28.7666 70.154 29.1117 69.898 29.493C69.6478 29.8656 69.3764 30.2376 69.1503 30.5424C69.1052 30.6032 69.0587 30.6655 69.0129 30.7268C68.8584 30.9336 68.7116 31.1301 68.652 31.2255L68.5827 31.3363L68.5443 31.4613L65.5442 41.2058L65.5168 41.2947L65.5063 41.3871C65.4851 41.5737 65.4883 41.7033 65.4953 41.8144C65.4962 41.8293 65.497 41.842 65.4978 41.853C65.5011 41.9044 65.5022 41.9202 65.5006 41.9624L65.4992 41.9994L65.5005 42.0363L65.5464 43.2982L65.5478 43.3362L65.5521 43.374C65.5526 43.3787 65.5584 43.4372 65.4818 43.598C65.4106 43.7475 65.3154 43.8944 65.1804 44.1027C65.1583 44.137 65.135 44.1729 65.1106 44.2107C64.9647 44.4369 64.7513 44.7716 64.6338 45.1425C64.5024 45.5574 64.4712 46.0792 64.7625 46.6002C65.9301 48.6886 67.8622 50.1121 69.9645 50.773C72.0669 51.434 74.4659 51.3721 76.6185 50.3275C78.8194 49.2594 80.546 47.2688 81.4189 44.4923L84.473 34.7773C84.6541 34.2012 84.774 33.6344 84.837 33.0792C85.1234 32.525 85.3685 31.9289 85.5686 31.2926L88.6227 21.5776C90.3424 16.1074 86.5031 11.9898 82.6596 10.6597C80.6699 9.97106 78.3407 9.85323 76.1982 10.7146C73.97 11.6104 72.2142 13.4622 71.3682 16.1532L71.3647 16.1645L71.3614 16.1759L69.0392 24.2227L68.8613 24.8392L69.3476 25.2579C70.2934 26.072 70.7919 27.2802 70.9496 28.0639ZM73.8298 30.6511C73.6609 30.349 73.5293 29.9888 73.4707 29.563C73.6841 29.3715 73.9137 29.2367 74.1501 29.1417C74.8103 28.8763 75.7151 28.854 76.6673 29.1835C77.9924 29.6421 78.8458 30.5119 79.1313 31.47C78.867 31.7338 78.5869 31.9239 78.3084 32.0591L78.745 32.9587L78.3084 32.0591C77.572 32.4164 76.6706 32.4712 75.8039 32.1987C74.9372 31.9262 74.2292 31.3655 73.8298 30.6511ZM69.5392 40.7576L71.0548 35.9364C71.9724 36.6791 73.0196 37.2293 74.1142 37.5734C75.2087 37.9175 76.3823 38.0655 77.5598 37.9814L76.0442 42.8026C75.5958 44.2289 74.8469 44.9248 74.1587 45.2587L74.5953 46.1584L74.1587 45.2587C73.4223 45.6161 72.5209 45.6708 71.6542 45.3983C70.7875 45.1259 70.0796 44.5652 69.6801 43.8508C69.3068 43.1831 69.0908 42.1838 69.5392 40.7576ZM76.743 17.8429C76.743 17.8429 76.743 17.8429 76.743 17.8429C77.1119 16.6692 77.7253 16.173 78.2998 15.942C78.96 15.6766 79.8647 15.6543 80.817 15.9839C82.8245 16.6786 83.7544 18.2772 83.248 19.8879L84.202 20.1878L83.248 19.8879L81.4867 25.4904C80.5747 24.7717 79.5515 24.2198 78.5099 23.8593C77.4193 23.4819 76.2295 23.2765 75.0247 23.3086L76.743 17.8429Z" fill="#F0F3F7" stroke="#F0F3F6" stroke-width="2"/>
<path d="M75.1668 36.8182C76.853 37.1808 78.68 37.0297 80.3317 36.2282C82.2638 35.2906 83.8171 33.53 84.6148 30.9927L87.6689 21.2777C89.1696 16.5042 85.8646 12.827 82.3327 11.6047C80.5267 10.9796 78.4504 10.887 76.5713 11.6425C74.6371 12.4201 73.0838 14.0311 72.3224 16.4532L69.5874 25.153C70.625 24.0685 72.2879 23.3368 73.9909 23.2631L75.7891 17.543C76.243 16.0995 77.0595 15.363 77.9269 15.0142C78.8496 14.6433 80.007 14.6453 81.1442 15.0389C83.4988 15.8538 84.9184 17.9096 84.2021 20.1879L81.148 29.9029C80.6241 31.5693 79.7013 32.4947 78.7451 32.9588C77.7578 33.4379 76.5907 33.4943 75.5041 33.1527C75.2285 33.066 74.9633 32.9554 74.7122 32.8229C73.0576 32.4358 71.1912 35.5623 75.1181 36.7968C75.1181 36.7968 75.1347 36.8041 75.1668 36.8182Z" fill="#00A9DC"/>
<path d="M77.4117 28.4C79.641 29.0428 81.1724 26.3667 79.1707 25.2242C79.1666 25.2186 79.1624 25.2132 79.1582 25.2077C78.8376 25.0528 78.5113 24.918 78.183 24.8044C76.377 24.1793 74.3007 24.0867 72.4216 24.8421C70.4874 25.6198 68.9341 27.2308 68.1727 29.6528L65.1186 39.3678C64.3209 41.9051 64.5875 44.2378 65.6355 46.1122C66.6666 47.9565 68.3812 49.227 70.2646 49.8191C72.1479 50.4112 74.2811 50.3503 76.182 49.4278C78.1141 48.4902 79.6674 46.7297 80.4651 44.1924L83.039 36.0047C82.0355 36.992 80.4966 37.917 78.5688 38.1069L76.9983 43.1025C76.4744 44.769 75.5516 45.6944 74.5954 46.1584C73.6081 46.6376 72.441 46.6939 71.3544 46.3523C70.2679 46.0108 69.343 45.2967 68.8074 44.3388C68.2887 43.4111 68.0615 42.1242 68.5853 40.4577L71.6394 30.7427C72.0933 29.2992 72.9098 28.5626 73.7772 28.2139C74.6999 27.8429 75.8573 27.845 76.9945 28.2386C77.1371 28.2879 77.2762 28.3418 77.4117 28.4Z" fill="#00A9DC"/>
</g>
<defs>
<clipPath id="clip0_189_124">
<rect width="53.5728" height="26.2758" fill="white" transform="translate(14.803)"/>
</clipPath>
<clipPath id="clip1_189_124">
<rect width="36.1787" height="43.1979" fill="white" transform="translate(53.8213 9.22457)"/>
</clipPath>
</defs>
</svg>
