<svg width="20" height="17" viewBox="0 0 20 17" fill="none" xmlns="http://www.w3.org/2000/svg">
<mask id="path-2-outside-1_102_222" maskUnits="userSpaceOnUse" x="0.299316" y="0.034153" width="20" height="17" fill="black">
<rect fill="white" x="0.299316" y="0.034153" width="20" height="17"/>
<path fill-rule="evenodd" clip-rule="evenodd" d="M3.3581 7.52885C7.49242 5.7276 10.2493 4.5401 11.6287 3.96636C15.5672 2.32821 16.3855 2.04365 16.919 2.03425C17.0363 2.03219 17.2986 2.06126 17.4685 2.19914C17.612 2.31556 17.6515 2.47282 17.6703 2.5832C17.6892 2.69358 17.7128 2.94502 17.6941 3.1415C17.4806 5.38399 16.5571 10.8259 16.0873 13.3376C15.8885 14.4003 15.4971 14.7567 15.1181 14.7916C14.2945 14.8673 13.6692 14.2473 12.8715 13.7244C11.6233 12.9062 10.9181 12.3969 9.70655 11.5984C8.30634 10.6757 9.21404 10.1686 10.012 9.33978C10.2208 9.12288 13.8495 5.82233 13.9197 5.52291C13.9285 5.48547 13.9367 5.34589 13.8538 5.27218C13.7708 5.19848 13.6484 5.22368 13.5601 5.24372C13.4349 5.27214 11.4409 6.5901 7.57811 9.19762C7.01211 9.58627 6.49945 9.77563 6.04013 9.76571C5.53376 9.75477 4.55971 9.4794 3.83561 9.24402C2.94746 8.95532 2.24158 8.80269 2.30305 8.31238C2.33506 8.057 2.68675 7.79583 3.3581 7.52885Z"/>
</mask>
<path fill-rule="evenodd" clip-rule="evenodd" d="M3.3581 7.52885C7.49242 5.7276 10.2493 4.5401 11.6287 3.96636C15.5672 2.32821 16.3855 2.04365 16.919 2.03425C17.0363 2.03219 17.2986 2.06126 17.4685 2.19914C17.612 2.31556 17.6515 2.47282 17.6703 2.5832C17.6892 2.69358 17.7128 2.94502 17.6941 3.1415C17.4806 5.38399 16.5571 10.8259 16.0873 13.3376C15.8885 14.4003 15.4971 14.7567 15.1181 14.7916C14.2945 14.8673 13.6692 14.2473 12.8715 13.7244C11.6233 12.9062 10.9181 12.3969 9.70655 11.5984C8.30634 10.6757 9.21404 10.1686 10.012 9.33978C10.2208 9.12288 13.8495 5.82233 13.9197 5.52291C13.9285 5.48547 13.9367 5.34589 13.8538 5.27218C13.7708 5.19848 13.6484 5.22368 13.5601 5.24372C13.4349 5.27214 11.4409 6.5901 7.57811 9.19762C7.01211 9.58627 6.49945 9.77563 6.04013 9.76571C5.53376 9.75477 4.55971 9.4794 3.83561 9.24402C2.94746 8.95532 2.24158 8.80269 2.30305 8.31238C2.33506 8.057 2.68675 7.79583 3.3581 7.52885Z" fill="#00A9DC"/>
<path fill-rule="evenodd" clip-rule="evenodd" d="M3.3581 7.52885C7.49242 5.7276 10.2493 4.5401 11.6287 3.96636C15.5672 2.32821 16.3855 2.04365 16.919 2.03425C17.0363 2.03219 17.2986 2.06126 17.4685 2.19914C17.612 2.31556 17.6515 2.47282 17.6703 2.5832C17.6892 2.69358 17.7128 2.94502 17.6941 3.1415C17.4806 5.38399 16.5571 10.8259 16.0873 13.3376C15.8885 14.4003 15.4971 14.7567 15.1181 14.7916C14.2945 14.8673 13.6692 14.2473 12.8715 13.7244C11.6233 12.9062 10.9181 12.3969 9.70655 11.5984C8.30634 10.6757 9.21404 10.1686 10.012 9.33978C10.2208 9.12288 13.8495 5.82233 13.9197 5.52291C13.9285 5.48547 13.9367 5.34589 13.8538 5.27218C13.7708 5.19848 13.6484 5.22368 13.5601 5.24372C13.4349 5.27214 11.4409 6.5901 7.57811 9.19762C7.01211 9.58627 6.49945 9.77563 6.04013 9.76571C5.53376 9.75477 4.55971 9.4794 3.83561 9.24402C2.94746 8.95532 2.24158 8.80269 2.30305 8.31238C2.33506 8.057 2.68675 7.79583 3.3581 7.52885Z" stroke="#F0F3F6" stroke-width="0" mask="url(#path-2-outside-1_102_222)"/>
</svg>
