<?xml version="1.0" encoding="utf-8"?><svg xmlns="http://www.w3.org/2000/svg" xmlns:xlink="http://www.w3.org/1999/xlink"><symbol fill="none" viewBox="0 0 20 20" id="email" xmlns="http://www.w3.org/2000/svg"><mask id="aa" maskUnits="userSpaceOnUse" x="0" y="0" width="20" height="20" fill="#000"><path fill="#fff" d="M0 0h20v20H0z"/><path d="M10.195 18c-1.3 0-2.456-.177-3.47-.53-1.015-.348-1.873-.862-2.574-1.54-.7-.673-1.234-1.496-1.601-2.47-.367-.974-.55-2.082-.55-3.323 0-1.225.183-2.337.55-3.335.37-.998.91-1.854 1.62-2.568.708-.719 1.574-1.27 2.597-1.656C7.794 2.193 8.963 2 10.275 2c1.214 0 2.298.176 3.251.53.958.352 1.768.856 2.433 1.509a6.408 6.408 0 0 1 1.521 2.319c.35.892.524 1.88.52 2.963a9.54 9.54 0 0 1-.196 2.058 5.133 5.133 0 0 1-.635 1.637c-.285.462-.66.83-1.125 1.101-.464.268-1.027.42-1.687.457-.472.036-.855.002-1.149-.104-.293-.105-.517-.262-.672-.469a1.711 1.711 0 0 1-.293-.736h-.074c-.097.244-.289.465-.574.663a3.385 3.385 0 0 1-1.045.457 4.147 4.147 0 0 1-1.302.116 3.854 3.854 0 0 1-1.369-.335 3.474 3.474 0 0 1-1.143-.846c-.33-.37-.59-.826-.782-1.37-.187-.543-.283-1.172-.287-1.886.004-.706.104-1.32.3-1.844.199-.524.462-.964.788-1.32A3.897 3.897 0 0 1 9.07 5.67c.46-.07.896-.07 1.308 0 .411.069.758.18 1.039.335.285.154.462.32.532.499h.085v-.682h1.913v5.94c.004.28.067.497.19.651a.598.598 0 0 0 .494.231c.282 0 .516-.123.703-.37.192-.248.334-.628.428-1.139.098-.511.147-1.162.147-1.954 0-.762-.102-1.432-.306-2.008-.2-.58-.48-1.073-.843-1.479a4.44 4.44 0 0 0-1.253-.998 5.795 5.795 0 0 0-1.552-.56 8.216 8.216 0 0 0-1.712-.176c-1.014 0-1.9.154-2.658.462-.758.305-1.39.733-1.895 1.284a5.425 5.425 0 0 0-1.136 1.942 7.646 7.646 0 0 0-.38 2.416c.005.961.14 1.813.404 2.556.269.738.664 1.36 1.186 1.862.521.503 1.165.885 1.93 1.145.767.26 1.647.389 2.641.389.469 0 .927-.034 1.375-.103.448-.065.854-.146 1.216-.244.363-.093.654-.184.874-.274l.605 1.765c-.256.146-.605.282-1.045.408-.436.13-.929.233-1.479.31-.546.081-1.108.122-1.687.122Zm-.28-5.502c.496 0 .892-.095 1.185-.286.297-.19.51-.472.636-.846.13-.377.191-.842.183-1.393-.004-.487-.067-.9-.19-1.236a1.4 1.4 0 0 0-.617-.773c-.29-.178-.692-.268-1.21-.268-.452 0-.837.096-1.155.287a1.87 1.87 0 0 0-.721.803c-.163.34-.247.742-.25 1.205.003.43.073.838.207 1.223.135.381.357.692.666.931.31.236.732.353 1.265.353Z"/></mask><path d="M10.195 18c-1.3 0-2.456-.177-3.47-.53-1.015-.348-1.873-.862-2.574-1.54-.7-.673-1.234-1.496-1.601-2.47-.367-.974-.55-2.082-.55-3.323 0-1.225.183-2.337.55-3.335.37-.998.91-1.854 1.62-2.568.708-.719 1.574-1.27 2.597-1.656C7.794 2.193 8.963 2 10.275 2c1.214 0 2.298.176 3.251.53.958.352 1.768.856 2.433 1.509a6.408 6.408 0 0 1 1.521 2.319c.35.892.524 1.88.52 2.963a9.54 9.54 0 0 1-.196 2.058 5.133 5.133 0 0 1-.635 1.637c-.285.462-.66.83-1.125 1.101-.464.268-1.027.42-1.687.457-.472.036-.855.002-1.149-.104-.293-.105-.517-.262-.672-.469a1.711 1.711 0 0 1-.293-.736h-.074c-.097.244-.289.465-.574.663a3.385 3.385 0 0 1-1.045.457 4.147 4.147 0 0 1-1.302.116 3.854 3.854 0 0 1-1.369-.335 3.474 3.474 0 0 1-1.143-.846c-.33-.37-.59-.826-.782-1.37-.187-.543-.283-1.172-.287-1.886.004-.706.104-1.32.3-1.844.199-.524.462-.964.788-1.32A3.897 3.897 0 0 1 9.07 5.67c.46-.07.896-.07 1.308 0 .411.069.758.18 1.039.335.285.154.462.32.532.499h.085v-.682h1.913v5.94c.004.28.067.497.19.651a.598.598 0 0 0 .494.231c.282 0 .516-.123.703-.37.192-.248.334-.628.428-1.139.098-.511.147-1.162.147-1.954 0-.762-.102-1.432-.306-2.008-.2-.58-.48-1.073-.843-1.479a4.44 4.44 0 0 0-1.253-.998 5.795 5.795 0 0 0-1.552-.56 8.216 8.216 0 0 0-1.712-.176c-1.014 0-1.9.154-2.658.462-.758.305-1.39.733-1.895 1.284a5.425 5.425 0 0 0-1.136 1.942 7.646 7.646 0 0 0-.38 2.416c.005.961.14 1.813.404 2.556.269.738.664 1.36 1.186 1.862.521.503 1.165.885 1.93 1.145.767.26 1.647.389 2.641.389.469 0 .927-.034 1.375-.103.448-.065.854-.146 1.216-.244.363-.093.654-.184.874-.274l.605 1.765c-.256.146-.605.282-1.045.408-.436.13-.929.233-1.479.31-.546.081-1.108.122-1.687.122Zm-.28-5.502c.496 0 .892-.095 1.185-.286.297-.19.51-.472.636-.846.13-.377.191-.842.183-1.393-.004-.487-.067-.9-.19-1.236a1.4 1.4 0 0 0-.617-.773c-.29-.178-.692-.268-1.21-.268-.452 0-.837.096-1.155.287a1.87 1.87 0 0 0-.721.803c-.163.34-.247.742-.25 1.205.003.43.073.838.207 1.223.135.381.357.692.666.931.31.236.732.353 1.265.353Z" fill="#FD7655"/><path d="M10.195 18c-1.3 0-2.456-.177-3.47-.53-1.015-.348-1.873-.862-2.574-1.54-.7-.673-1.234-1.496-1.601-2.47-.367-.974-.55-2.082-.55-3.323 0-1.225.183-2.337.55-3.335.37-.998.91-1.854 1.62-2.568.708-.719 1.574-1.27 2.597-1.656C7.794 2.193 8.963 2 10.275 2c1.214 0 2.298.176 3.251.53.958.352 1.768.856 2.433 1.509a6.408 6.408 0 0 1 1.521 2.319c.35.892.524 1.88.52 2.963a9.54 9.54 0 0 1-.196 2.058 5.133 5.133 0 0 1-.635 1.637c-.285.462-.66.83-1.125 1.101-.464.268-1.027.42-1.687.457-.472.036-.855.002-1.149-.104-.293-.105-.517-.262-.672-.469a1.711 1.711 0 0 1-.293-.736h-.074c-.097.244-.289.465-.574.663a3.385 3.385 0 0 1-1.045.457 4.147 4.147 0 0 1-1.302.116 3.854 3.854 0 0 1-1.369-.335 3.474 3.474 0 0 1-1.143-.846c-.33-.37-.59-.826-.782-1.37-.187-.543-.283-1.172-.287-1.886.004-.706.104-1.32.3-1.844.199-.524.462-.964.788-1.32A3.897 3.897 0 0 1 9.07 5.67c.46-.07.896-.07 1.308 0 .411.069.758.18 1.039.335.285.154.462.32.532.499h.085v-.682h1.913v5.94c.004.28.067.497.19.651a.598.598 0 0 0 .494.231c.282 0 .516-.123.703-.37.192-.248.334-.628.428-1.139.098-.511.147-1.162.147-1.954 0-.762-.102-1.432-.306-2.008-.2-.58-.48-1.073-.843-1.479a4.44 4.44 0 0 0-1.253-.998 5.795 5.795 0 0 0-1.552-.56 8.216 8.216 0 0 0-1.712-.176c-1.014 0-1.9.154-2.658.462-.758.305-1.39.733-1.895 1.284a5.425 5.425 0 0 0-1.136 1.942 7.646 7.646 0 0 0-.38 2.416c.005.961.14 1.813.404 2.556.269.738.664 1.36 1.186 1.862.521.503 1.165.885 1.93 1.145.767.26 1.647.389 2.641.389.469 0 .927-.034 1.375-.103.448-.065.854-.146 1.216-.244.363-.093.654-.184.874-.274l.605 1.765c-.256.146-.605.282-1.045.408-.436.13-.929.233-1.479.31-.546.081-1.108.122-1.687.122Zm-.28-5.502c.496 0 .892-.095 1.185-.286.297-.19.51-.472.636-.846.13-.377.191-.842.183-1.393-.004-.487-.067-.9-.19-1.236a1.4 1.4 0 0 0-.617-.773c-.29-.178-.692-.268-1.21-.268-.452 0-.837.096-1.155.287a1.87 1.87 0 0 0-.721.803c-.163.34-.247.742-.25 1.205.003.43.073.838.207 1.223.135.381.357.692.666.931.31.236.732.353 1.265.353Z" mask="url(#aa)"/></symbol><symbol fill="none" viewBox="0 0 39 34" id="heart" xmlns="http://www.w3.org/2000/svg"><path d="M37.784 16.883c.607 0 1.104-.498 1.104-1.106 0-.608-.497-1.106-1.104-1.106-.607 0-1.104.498-1.104 1.106 0 .608.497 1.106 1.104 1.106ZM37.783 14.434c.608 0 1.104-.496 1.104-1.103 0-.608-.496-1.104-1.104-1.104-.607 0-1.103.496-1.103 1.104 0 .607.496 1.103 1.103 1.103ZM37.783 11.99c.608 0 1.104-.497 1.104-1.105 0-.607-.496-1.104-1.104-1.104-.607 0-1.103.497-1.103 1.104 0 .608.496 1.104 1.103 1.104ZM37.783 9.544c.608 0 1.104-.497 1.104-1.104 0-.607-.496-1.104-1.104-1.104-.607 0-1.103.497-1.103 1.104 0 .607.496 1.104 1.103 1.104ZM35.338 19.329c.608 0 1.104-.497 1.104-1.104 0-.608-.496-1.104-1.104-1.104-.607 0-1.104.496-1.104 1.104 0 .607.497 1.104 1.104 1.104ZM35.338 16.883c.608 0 1.104-.498 1.104-1.106 0-.608-.496-1.106-1.104-1.106-.607 0-1.104.498-1.104 1.106 0 .608.497 1.106 1.104 1.106ZM35.338 14.434c.608 0 1.104-.496 1.104-1.103 0-.608-.496-1.104-1.104-1.104-.607 0-1.104.496-1.104 1.104 0 .607.497 1.103 1.104 1.103ZM35.338 11.99c.608 0 1.104-.497 1.104-1.105 0-.607-.496-1.104-1.104-1.104-.607 0-1.104.497-1.104 1.104 0 .608.497 1.104 1.104 1.104ZM35.338 9.544c.608 0 1.104-.497 1.104-1.104 0-.607-.496-1.104-1.104-1.104-.607 0-1.104.497-1.104 1.104 0 .607.497 1.104 1.104 1.104ZM35.338 7.099c.608 0 1.104-.497 1.104-1.104 0-.608-.496-1.104-1.104-1.104-.607 0-1.104.496-1.104 1.104 0 .607.497 1.104 1.104 1.104ZM32.893 21.774c.607 0 1.104-.497 1.104-1.104 0-.607-.497-1.104-1.104-1.104-.607 0-1.104.497-1.104 1.104 0 .607.497 1.104 1.104 1.104ZM32.893 19.329c.607 0 1.104-.497 1.104-1.104 0-.608-.497-1.104-1.104-1.104-.607 0-1.104.496-1.104 1.104 0 .607.497 1.104 1.104 1.104ZM32.893 16.883c.607 0 1.104-.498 1.104-1.106 0-.608-.497-1.106-1.104-1.106-.607 0-1.104.498-1.104 1.106 0 .608.497 1.106 1.104 1.106ZM32.893 14.434c.607 0 1.104-.496 1.104-1.103 0-.608-.497-1.104-1.104-1.104-.607 0-1.104.496-1.104 1.104 0 .607.497 1.103 1.104 1.103ZM32.893 11.99c.607 0 1.104-.497 1.104-1.105 0-.607-.497-1.104-1.104-1.104-.607 0-1.104.497-1.104 1.104 0 .608.497 1.104 1.104 1.104ZM32.893 9.544c.607 0 1.104-.497 1.104-1.104 0-.607-.497-1.104-1.104-1.104-.607 0-1.104.497-1.104 1.104 0 .607.497 1.104 1.104 1.104ZM32.893 7.099c.607 0 1.104-.497 1.104-1.104 0-.608-.497-1.104-1.104-1.104-.607 0-1.104.496-1.104 1.104 0 .607.497 1.104 1.104 1.104ZM32.893 4.654c.607 0 1.104-.497 1.104-1.104 0-.608-.497-1.104-1.104-1.104-.607 0-1.104.496-1.104 1.104 0 .607.497 1.104 1.104 1.104ZM30.448 24.219c.607 0 1.104-.497 1.104-1.104 0-.608-.497-1.104-1.104-1.104-.608 0-1.105.496-1.105 1.104 0 .607.497 1.104 1.105 1.104ZM30.448 21.774c.607 0 1.104-.497 1.104-1.104 0-.607-.497-1.104-1.104-1.104-.608 0-1.105.497-1.105 1.104 0 .607.497 1.104 1.105 1.104ZM30.448 19.329c.607 0 1.104-.497 1.104-1.104 0-.608-.497-1.104-1.104-1.104-.608 0-1.104.496-1.104 1.104 0 .607.496 1.104 1.104 1.104ZM30.448 16.883c.607 0 1.104-.498 1.104-1.106 0-.608-.497-1.106-1.104-1.106-.608 0-1.104.498-1.104 1.106 0 .608.496 1.106 1.104 1.106ZM30.448 14.434c.607 0 1.104-.496 1.104-1.103 0-.608-.497-1.104-1.104-1.104-.608 0-1.105.496-1.105 1.104 0 .607.497 1.103 1.105 1.103ZM30.448 11.99c.607 0 1.104-.497 1.104-1.105 0-.607-.497-1.104-1.104-1.104-.608 0-1.105.497-1.105 1.104 0 .608.497 1.104 1.105 1.104ZM30.448 9.544c.607 0 1.104-.497 1.104-1.104 0-.607-.497-1.104-1.104-1.104-.608 0-1.105.497-1.105 1.104 0 .607.497 1.104 1.105 1.104ZM30.448 7.099c.607 0 1.104-.497 1.104-1.104 0-.608-.497-1.104-1.104-1.104-.608 0-1.105.496-1.105 1.104 0 .607.497 1.104 1.105 1.104ZM30.448 4.654c.607 0 1.104-.497 1.104-1.104 0-.608-.497-1.104-1.104-1.104-.608 0-1.105.496-1.105 1.104 0 .607.497 1.104 1.105 1.104ZM30.448 2.208c.607 0 1.104-.497 1.104-1.104C31.552.497 31.055 0 30.448 0c-.608 0-1.105.497-1.105 1.104 0 .607.497 1.104 1.105 1.104ZM28.002 26.664c.608 0 1.104-.496 1.104-1.103 0-.608-.497-1.105-1.104-1.105-.607 0-1.104.497-1.104 1.105 0 .607.497 1.103 1.104 1.103ZM28.002 24.219c.608 0 1.104-.497 1.104-1.104 0-.608-.497-1.104-1.104-1.104-.607 0-1.104.496-1.104 1.104 0 .607.497 1.104 1.104 1.104ZM28.002 21.774c.608 0 1.104-.497 1.104-1.104 0-.607-.497-1.104-1.104-1.104-.607 0-1.104.497-1.104 1.104 0 .607.497 1.104 1.104 1.104ZM28.002 19.329c.608 0 1.104-.497 1.104-1.104 0-.608-.496-1.104-1.104-1.104-.607 0-1.103.496-1.103 1.104 0 .607.496 1.104 1.103 1.104ZM28.002 16.883c.608 0 1.104-.498 1.104-1.106 0-.608-.496-1.106-1.104-1.106-.607 0-1.103.498-1.103 1.106 0 .608.496 1.106 1.103 1.106ZM28.002 14.434c.608 0 1.104-.496 1.104-1.103 0-.608-.497-1.104-1.104-1.104-.607 0-1.104.496-1.104 1.104 0 .607.497 1.103 1.104 1.103ZM28.002 11.99c.608 0 1.104-.497 1.104-1.105 0-.607-.497-1.104-1.104-1.104-.607 0-1.104.497-1.104 1.104 0 .608.497 1.104 1.104 1.104ZM28.002 9.544c.608 0 1.104-.497 1.104-1.104 0-.607-.497-1.104-1.104-1.104-.607 0-1.104.497-1.104 1.104 0 .607.497 1.104 1.104 1.104ZM28.002 7.099c.608 0 1.104-.497 1.104-1.104 0-.608-.497-1.104-1.104-1.104-.607 0-1.104.496-1.104 1.104 0 .607.497 1.104 1.104 1.104ZM28.002 4.654c.608 0 1.104-.497 1.104-1.104 0-.608-.497-1.104-1.104-1.104-.607 0-1.104.496-1.104 1.104 0 .607.497 1.104 1.104 1.104ZM28.002 2.208c.608 0 1.104-.497 1.104-1.104C29.106.497 28.61 0 28.002 0c-.607 0-1.104.497-1.104 1.104 0 .607.497 1.104 1.104 1.104ZM25.557 29.11c.607 0 1.104-.497 1.104-1.105 0-.607-.497-1.104-1.104-1.104-.607 0-1.104.497-1.104 1.104 0 .608.497 1.104 1.104 1.104ZM25.557 26.664c.607 0 1.104-.496 1.104-1.103 0-.608-.497-1.105-1.104-1.105-.607 0-1.104.497-1.104 1.105 0 .607.497 1.103 1.104 1.103ZM25.557 24.219c.607 0 1.104-.497 1.104-1.104 0-.608-.497-1.104-1.104-1.104-.607 0-1.104.496-1.104 1.104 0 .607.497 1.104 1.104 1.104ZM25.557 21.774c.607 0 1.104-.497 1.104-1.104 0-.607-.497-1.104-1.104-1.104-.607 0-1.104.497-1.104 1.104 0 .607.497 1.104 1.104 1.104ZM25.557 19.329c.607 0 1.104-.497 1.104-1.104 0-.608-.497-1.104-1.104-1.104-.607 0-1.104.496-1.104 1.104 0 .607.497 1.104 1.104 1.104ZM25.557 16.883c.607 0 1.104-.498 1.104-1.106 0-.608-.497-1.106-1.104-1.106-.607 0-1.104.498-1.104 1.106 0 .608.497 1.106 1.104 1.106ZM25.557 14.434c.607 0 1.104-.496 1.104-1.103 0-.608-.497-1.104-1.104-1.104-.607 0-1.104.496-1.104 1.104 0 .607.497 1.103 1.104 1.103ZM25.557 11.99c.607 0 1.104-.497 1.104-1.105 0-.607-.497-1.104-1.104-1.104-.607 0-1.104.497-1.104 1.104 0 .608.497 1.104 1.104 1.104ZM25.557 9.544c.607 0 1.104-.497 1.104-1.104 0-.607-.497-1.104-1.104-1.104-.607 0-1.104.497-1.104 1.104 0 .607.497 1.104 1.104 1.104ZM25.557 7.099c.607 0 1.104-.497 1.104-1.104 0-.608-.497-1.104-1.104-1.104-.607 0-1.104.496-1.104 1.104 0 .607.497 1.104 1.104 1.104ZM25.557 4.654c.607 0 1.104-.497 1.104-1.104 0-.608-.497-1.104-1.104-1.104-.607 0-1.104.496-1.104 1.104 0 .607.497 1.104 1.104 1.104ZM25.557 2.208c.607 0 1.104-.497 1.104-1.104C26.66.497 26.164 0 25.557 0c-.607 0-1.104.497-1.104 1.104 0 .607.497 1.104 1.104 1.104ZM23.112 31.555c.607 0 1.104-.497 1.104-1.104 0-.607-.497-1.104-1.104-1.104-.607 0-1.104.497-1.104 1.104 0 .607.497 1.104 1.104 1.104ZM23.112 29.11c.607 0 1.104-.497 1.104-1.105 0-.607-.497-1.104-1.104-1.104-.607 0-1.104.497-1.104 1.104 0 .608.497 1.104 1.104 1.104ZM23.112 26.664c.607 0 1.104-.496 1.104-1.103 0-.608-.497-1.105-1.104-1.105-.607 0-1.104.497-1.104 1.105 0 .607.497 1.103 1.104 1.103ZM23.112 24.219c.607 0 1.104-.497 1.104-1.104 0-.608-.497-1.104-1.104-1.104-.607 0-1.104.496-1.104 1.104 0 .607.497 1.104 1.104 1.104ZM23.112 21.774c.607 0 1.104-.497 1.104-1.104 0-.607-.497-1.104-1.104-1.104-.607 0-1.104.497-1.104 1.104 0 .607.497 1.104 1.104 1.104ZM23.112 19.329c.607 0 1.104-.497 1.104-1.104 0-.608-.497-1.104-1.104-1.104-.607 0-1.104.496-1.104 1.104 0 .607.497 1.104 1.104 1.104ZM23.112 16.883c.607 0 1.104-.498 1.104-1.106 0-.608-.497-1.106-1.104-1.106-.607 0-1.104.498-1.104 1.106 0 .608.497 1.106 1.104 1.106ZM23.112 14.434c.607 0 1.104-.496 1.104-1.103 0-.608-.497-1.104-1.104-1.104-.607 0-1.104.496-1.104 1.104 0 .607.497 1.103 1.104 1.103ZM23.112 11.99c.607 0 1.104-.497 1.104-1.105 0-.607-.497-1.104-1.104-1.104-.607 0-1.104.497-1.104 1.104 0 .608.497 1.104 1.104 1.104ZM23.112 9.544c.607 0 1.104-.497 1.104-1.104 0-.607-.497-1.104-1.104-1.104-.607 0-1.104.497-1.104 1.104 0 .607.497 1.104 1.104 1.104ZM23.112 7.099c.607 0 1.104-.497 1.104-1.104 0-.608-.497-1.104-1.104-1.104-.607 0-1.104.496-1.104 1.104 0 .607.497 1.104 1.104 1.104ZM23.112 4.654c.607 0 1.104-.497 1.104-1.104 0-.608-.497-1.104-1.104-1.104-.607 0-1.104.496-1.104 1.104 0 .607.497 1.104 1.104 1.104ZM20.666 34c.608 0 1.104-.497 1.104-1.104 0-.607-.496-1.104-1.104-1.104-.607 0-1.104.497-1.104 1.104 0 .607.497 1.104 1.104 1.104ZM20.666 31.555c.608 0 1.104-.497 1.104-1.104 0-.607-.496-1.104-1.104-1.104-.607 0-1.104.497-1.104 1.104 0 .607.497 1.104 1.104 1.104ZM20.666 29.11c.608 0 1.104-.497 1.104-1.105 0-.607-.496-1.104-1.104-1.104-.607 0-1.104.497-1.104 1.104 0 .608.497 1.104 1.104 1.104ZM20.666 26.664c.608 0 1.104-.496 1.104-1.103 0-.608-.496-1.105-1.104-1.105-.607 0-1.104.497-1.104 1.105 0 .607.497 1.103 1.104 1.103ZM20.666 24.219c.608 0 1.104-.497 1.104-1.104 0-.608-.496-1.104-1.104-1.104-.607 0-1.104.496-1.104 1.104 0 .607.497 1.104 1.104 1.104ZM20.666 21.774c.608 0 1.104-.497 1.104-1.104 0-.607-.496-1.104-1.104-1.104-.607 0-1.104.497-1.104 1.104 0 .607.497 1.104 1.104 1.104ZM20.666 19.329c.608 0 1.104-.497 1.104-1.104 0-.608-.496-1.104-1.104-1.104-.607 0-1.104.496-1.104 1.104 0 .607.497 1.104 1.104 1.104ZM20.666 16.883c.608 0 1.104-.498 1.104-1.106 0-.608-.496-1.106-1.104-1.106-.607 0-1.104.498-1.104 1.106 0 .608.497 1.106 1.104 1.106ZM20.666 14.434c.608 0 1.104-.496 1.104-1.103 0-.608-.496-1.104-1.104-1.104-.607 0-1.104.496-1.104 1.104 0 .607.497 1.103 1.104 1.103ZM20.666 11.99c.608 0 1.104-.497 1.104-1.105 0-.607-.496-1.104-1.104-1.104-.607 0-1.104.497-1.104 1.104 0 .608.497 1.104 1.104 1.104ZM20.666 9.544c.608 0 1.104-.497 1.104-1.104 0-.607-.496-1.104-1.104-1.104-.607 0-1.104.497-1.104 1.104 0 .607.497 1.104 1.104 1.104ZM20.666 7.099c.608 0 1.104-.497 1.104-1.104 0-.608-.496-1.104-1.104-1.104-.607 0-1.104.496-1.104 1.104 0 .607.497 1.104 1.104 1.104ZM18.22 34c.608 0 1.105-.497 1.105-1.104 0-.607-.497-1.104-1.104-1.104-.607 0-1.104.497-1.104 1.104 0 .607.497 1.104 1.104 1.104ZM18.22 31.555c.608 0 1.105-.497 1.105-1.104 0-.607-.497-1.104-1.104-1.104-.607 0-1.104.497-1.104 1.104 0 .607.497 1.104 1.104 1.104ZM18.22 29.11c.608 0 1.105-.497 1.105-1.105 0-.607-.497-1.104-1.104-1.104-.607 0-1.104.497-1.104 1.104 0 .608.497 1.104 1.104 1.104ZM18.22 26.664c.608 0 1.105-.496 1.105-1.103 0-.608-.497-1.105-1.104-1.105-.607 0-1.104.497-1.104 1.105 0 .607.497 1.103 1.104 1.103ZM18.22 24.219c.608 0 1.105-.497 1.105-1.104 0-.608-.497-1.104-1.104-1.104-.607 0-1.104.496-1.104 1.104 0 .607.497 1.104 1.104 1.104ZM18.22 21.774c.608 0 1.105-.497 1.105-1.104 0-.607-.497-1.104-1.104-1.104-.607 0-1.104.497-1.104 1.104 0 .607.497 1.104 1.104 1.104ZM18.22 19.329c.608 0 1.105-.497 1.105-1.104 0-.608-.497-1.104-1.104-1.104-.607 0-1.104.496-1.104 1.104 0 .607.497 1.104 1.104 1.104ZM18.22 16.883c.608 0 1.105-.498 1.105-1.106 0-.608-.497-1.106-1.104-1.106-.607 0-1.104.498-1.104 1.106 0 .608.497 1.106 1.104 1.106ZM18.22 14.434c.608 0 1.105-.496 1.105-1.103 0-.608-.497-1.104-1.104-1.104-.607 0-1.104.496-1.104 1.104 0 .607.497 1.103 1.104 1.103ZM18.22 11.99c.608 0 1.105-.497 1.105-1.105 0-.607-.497-1.104-1.104-1.104-.607 0-1.104.497-1.104 1.104 0 .608.497 1.104 1.104 1.104ZM18.22 9.544c.608 0 1.105-.497 1.105-1.104 0-.607-.497-1.104-1.104-1.104-.607 0-1.104.497-1.104 1.104 0 .607.497 1.104 1.104 1.104ZM18.22 7.099c.608 0 1.105-.497 1.105-1.104 0-.608-.497-1.104-1.104-1.104-.607 0-1.104.496-1.104 1.104 0 .607.497 1.104 1.104 1.104ZM15.776 31.555c.607 0 1.104-.497 1.104-1.104 0-.607-.497-1.104-1.104-1.104-.608 0-1.104.497-1.104 1.104 0 .607.496 1.104 1.104 1.104ZM15.776 29.11c.607 0 1.104-.497 1.104-1.105 0-.607-.497-1.104-1.104-1.104-.608 0-1.104.497-1.104 1.104 0 .608.496 1.104 1.104 1.104ZM15.776 26.664c.607 0 1.104-.496 1.104-1.103 0-.608-.497-1.105-1.104-1.105-.608 0-1.104.497-1.104 1.105 0 .607.496 1.103 1.104 1.103ZM15.776 24.219c.607 0 1.104-.497 1.104-1.104 0-.608-.497-1.104-1.104-1.104-.608 0-1.104.496-1.104 1.104 0 .607.496 1.104 1.104 1.104ZM15.776 21.774c.607 0 1.104-.497 1.104-1.104 0-.607-.497-1.104-1.104-1.104-.608 0-1.104.497-1.104 1.104 0 .607.496 1.104 1.104 1.104ZM15.776 19.329c.607 0 1.104-.497 1.104-1.104 0-.608-.497-1.104-1.104-1.104-.608 0-1.104.496-1.104 1.104 0 .607.496 1.104 1.104 1.104ZM15.776 16.883c.607 0 1.104-.498 1.104-1.106 0-.608-.497-1.106-1.104-1.106-.608 0-1.104.498-1.104 1.106 0 .608.496 1.106 1.104 1.106ZM15.776 14.434c.607 0 1.104-.496 1.104-1.103 0-.608-.497-1.104-1.104-1.104-.608 0-1.104.496-1.104 1.104 0 .607.496 1.103 1.104 1.103ZM15.776 11.99c.607 0 1.104-.497 1.104-1.105 0-.607-.497-1.104-1.104-1.104-.608 0-1.104.497-1.104 1.104 0 .608.496 1.104 1.104 1.104ZM15.776 9.544c.607 0 1.104-.497 1.104-1.104 0-.607-.497-1.104-1.104-1.104-.608 0-1.104.497-1.104 1.104 0 .607.496 1.104 1.104 1.104ZM15.776 7.099c.607 0 1.104-.497 1.104-1.104 0-.608-.497-1.104-1.104-1.104-.608 0-1.104.496-1.104 1.104 0 .607.496 1.104 1.104 1.104ZM15.776 4.654c.607 0 1.104-.497 1.104-1.104 0-.608-.497-1.104-1.104-1.104-.608 0-1.104.496-1.104 1.104 0 .607.496 1.104 1.104 1.104ZM13.33 29.11c.608 0 1.104-.497 1.104-1.105 0-.607-.496-1.104-1.103-1.104s-1.104.497-1.104 1.104c0 .608.496 1.104 1.104 1.104ZM13.33 26.664c.608 0 1.104-.496 1.104-1.103 0-.608-.496-1.105-1.103-1.105s-1.104.497-1.104 1.105c0 .607.496 1.103 1.104 1.103ZM13.33 24.219c.608 0 1.104-.497 1.104-1.104 0-.608-.496-1.104-1.103-1.104s-1.104.496-1.104 1.104c0 .607.496 1.104 1.104 1.104ZM13.33 21.774c.608 0 1.104-.497 1.104-1.104 0-.607-.496-1.104-1.103-1.104s-1.104.497-1.104 1.104c0 .607.496 1.104 1.104 1.104ZM13.33 19.329c.608 0 1.104-.497 1.104-1.104 0-.608-.496-1.104-1.103-1.104-.608 0-1.104.496-1.104 1.104 0 .607.496 1.104 1.104 1.104ZM13.33 16.883c.608 0 1.104-.498 1.104-1.106 0-.608-.496-1.106-1.103-1.106-.608 0-1.104.498-1.104 1.106 0 .608.496 1.106 1.104 1.106ZM13.33 14.434c.608 0 1.104-.496 1.104-1.103 0-.608-.496-1.104-1.103-1.104s-1.104.496-1.104 1.104c0 .607.496 1.103 1.104 1.103ZM13.33 11.99c.608 0 1.104-.497 1.104-1.105 0-.607-.496-1.104-1.103-1.104s-1.104.497-1.104 1.104c0 .608.496 1.104 1.104 1.104ZM13.33 9.544c.608 0 1.104-.497 1.104-1.104 0-.607-.496-1.104-1.103-1.104s-1.104.497-1.104 1.104c0 .607.496 1.104 1.104 1.104ZM13.33 7.099c.608 0 1.104-.497 1.104-1.104 0-.608-.496-1.104-1.103-1.104s-1.104.496-1.104 1.104c0 .607.496 1.104 1.104 1.104ZM13.33 4.654c.608 0 1.104-.497 1.104-1.104 0-.608-.496-1.104-1.103-1.104s-1.104.496-1.104 1.104c0 .607.496 1.104 1.104 1.104ZM13.33 2.208c.608 0 1.104-.497 1.104-1.104C14.434.497 13.938 0 13.332 0s-1.104.497-1.104 1.104c0 .607.496 1.104 1.104 1.104ZM10.885 26.664c.607 0 1.104-.496 1.104-1.103 0-.608-.497-1.105-1.104-1.105-.607 0-1.104.497-1.104 1.105 0 .607.497 1.103 1.104 1.103ZM10.885 24.219c.607 0 1.104-.497 1.104-1.104 0-.608-.497-1.104-1.104-1.104-.607 0-1.104.496-1.104 1.104 0 .607.497 1.104 1.104 1.104ZM10.885 21.774c.607 0 1.104-.497 1.104-1.104 0-.607-.497-1.104-1.104-1.104-.607 0-1.104.497-1.104 1.104 0 .607.497 1.104 1.104 1.104ZM10.885 19.329c.608 0 1.104-.497 1.104-1.104 0-.608-.496-1.104-1.104-1.104-.607 0-1.104.496-1.104 1.104 0 .607.497 1.104 1.104 1.104ZM10.885 16.883c.608 0 1.104-.498 1.104-1.106 0-.608-.496-1.106-1.104-1.106-.607 0-1.104.498-1.104 1.106 0 .608.497 1.106 1.104 1.106ZM10.885 14.434c.607 0 1.104-.496 1.104-1.103 0-.608-.497-1.104-1.104-1.104-.607 0-1.104.496-1.104 1.104 0 .607.497 1.103 1.104 1.103ZM10.885 11.99c.607 0 1.104-.497 1.104-1.105 0-.607-.497-1.104-1.104-1.104-.607 0-1.104.497-1.104 1.104 0 .608.497 1.104 1.104 1.104ZM10.885 9.544c.607 0 1.104-.497 1.104-1.104 0-.607-.497-1.104-1.104-1.104-.607 0-1.104.497-1.104 1.104 0 .607.497 1.104 1.104 1.104ZM10.885 7.099c.607 0 1.104-.497 1.104-1.104 0-.608-.497-1.104-1.104-1.104-.607 0-1.104.496-1.104 1.104 0 .607.497 1.104 1.104 1.104ZM10.885 4.654c.607 0 1.104-.497 1.104-1.104 0-.608-.497-1.104-1.104-1.104-.607 0-1.104.496-1.104 1.104 0 .607.497 1.104 1.104 1.104ZM10.885 2.208c.607 0 1.104-.497 1.104-1.104C11.989.497 11.492 0 10.885 0c-.607 0-1.104.497-1.104 1.104 0 .607.497 1.104 1.104 1.104ZM8.44 24.219c.607 0 1.104-.497 1.104-1.104 0-.608-.497-1.104-1.104-1.104-.607 0-1.104.496-1.104 1.104 0 .607.497 1.104 1.104 1.104ZM8.44 21.774c.607 0 1.104-.497 1.104-1.104 0-.607-.497-1.104-1.104-1.104-.607 0-1.104.497-1.104 1.104 0 .607.497 1.104 1.104 1.104ZM8.44 19.329c.607 0 1.104-.497 1.104-1.104 0-.608-.497-1.104-1.104-1.104-.607 0-1.104.496-1.104 1.104 0 .607.497 1.104 1.104 1.104ZM8.44 16.883c.607 0 1.104-.498 1.104-1.106 0-.608-.497-1.106-1.104-1.106-.607 0-1.104.498-1.104 1.106 0 .608.497 1.106 1.104 1.106ZM8.44 14.434c.607 0 1.104-.496 1.104-1.103 0-.608-.497-1.104-1.104-1.104-.607 0-1.104.496-1.104 1.104 0 .607.497 1.103 1.104 1.103ZM8.44 11.99c.607 0 1.104-.497 1.104-1.105 0-.607-.497-1.104-1.104-1.104-.607 0-1.104.497-1.104 1.104 0 .608.497 1.104 1.104 1.104ZM8.44 9.544c.607 0 1.104-.497 1.104-1.104 0-.607-.497-1.104-1.104-1.104-.607 0-1.104.497-1.104 1.104 0 .607.497 1.104 1.104 1.104ZM8.44 7.099c.607 0 1.104-.497 1.104-1.104 0-.608-.497-1.104-1.104-1.104-.607 0-1.104.496-1.104 1.104 0 .607.497 1.104 1.104 1.104ZM8.44 4.654c.607 0 1.104-.497 1.104-1.104 0-.608-.497-1.104-1.104-1.104-.607 0-1.104.496-1.104 1.104 0 .607.497 1.104 1.104 1.104ZM8.44 2.208c.607 0 1.104-.497 1.104-1.104C9.544.497 9.047 0 8.44 0c-.607 0-1.104.497-1.104 1.104 0 .607.497 1.104 1.104 1.104ZM5.995 21.774c.607 0 1.104-.497 1.104-1.104 0-.607-.497-1.104-1.104-1.104-.608 0-1.104.497-1.104 1.104 0 .607.496 1.104 1.104 1.104ZM5.994 19.329c.608 0 1.104-.497 1.104-1.104 0-.608-.496-1.104-1.104-1.104-.607 0-1.104.496-1.104 1.104 0 .607.497 1.104 1.104 1.104ZM5.994 16.883c.608 0 1.104-.498 1.104-1.106 0-.608-.496-1.106-1.104-1.106-.607 0-1.104.498-1.104 1.106 0 .608.497 1.106 1.104 1.106ZM5.995 14.434c.607 0 1.104-.496 1.104-1.103 0-.608-.497-1.104-1.104-1.104-.608 0-1.104.496-1.104 1.104 0 .607.496 1.103 1.104 1.103ZM5.995 11.99c.607 0 1.104-.497 1.104-1.105 0-.607-.497-1.104-1.104-1.104-.608 0-1.104.497-1.104 1.104 0 .608.496 1.104 1.104 1.104ZM5.995 9.544c.607 0 1.104-.497 1.104-1.104 0-.607-.497-1.104-1.104-1.104-.608 0-1.104.497-1.104 1.104 0 .607.496 1.104 1.104 1.104ZM5.995 7.099c.607 0 1.104-.497 1.104-1.104 0-.608-.497-1.104-1.104-1.104-.608 0-1.104.496-1.104 1.104 0 .607.496 1.104 1.104 1.104ZM5.995 4.654c.607 0 1.104-.497 1.104-1.104 0-.608-.497-1.104-1.104-1.104-.608 0-1.104.496-1.104 1.104 0 .607.496 1.104 1.104 1.104ZM3.55 19.329c.607 0 1.104-.497 1.104-1.104 0-.608-.497-1.104-1.104-1.104-.608 0-1.104.496-1.104 1.104 0 .607.496 1.104 1.104 1.104ZM3.55 16.883c.607 0 1.104-.498 1.104-1.106 0-.608-.497-1.106-1.104-1.106-.608 0-1.104.498-1.104 1.106 0 .608.496 1.106 1.104 1.106ZM3.55 14.434c.607 0 1.103-.496 1.103-1.103 0-.608-.496-1.104-1.103-1.104-.608 0-1.104.496-1.104 1.104 0 .607.496 1.103 1.104 1.103ZM3.55 11.99c.607 0 1.103-.497 1.103-1.105 0-.607-.496-1.104-1.103-1.104-.608 0-1.104.497-1.104 1.104 0 .608.496 1.104 1.104 1.104ZM3.55 9.544c.607 0 1.103-.497 1.103-1.104 0-.607-.496-1.104-1.103-1.104-.608 0-1.104.497-1.104 1.104 0 .607.496 1.104 1.104 1.104ZM3.55 7.099c.607 0 1.103-.497 1.103-1.104 0-.608-.496-1.104-1.103-1.104-.608 0-1.104.496-1.104 1.104 0 .607.496 1.104 1.104 1.104ZM1.104 16.883c.607 0 1.104-.498 1.104-1.106 0-.608-.497-1.106-1.104-1.106-.607 0-1.104.498-1.104 1.106 0 .608.497 1.106 1.104 1.106ZM1.104 14.434c.607 0 1.104-.496 1.104-1.103 0-.608-.497-1.104-1.104-1.104-.607 0-1.104.496-1.104 1.104 0 .607.497 1.103 1.104 1.103ZM1.104 11.99c.607 0 1.104-.497 1.104-1.105 0-.607-.497-1.104-1.104-1.104-.607 0-1.104.497-1.104 1.104 0 .608.497 1.104 1.104 1.104ZM1.104 9.544c.607 0 1.104-.497 1.104-1.104 0-.607-.497-1.104-1.104-1.104C.497 7.336 0 7.833 0 8.44c0 .607.497 1.104 1.104 1.104Z" fill="#F0F3F6"/></symbol><symbol fill="none" viewBox="0 0 90 76" id="logo" xmlns="http://www.w3.org/2000/svg"><path d="M26.786 52.065h39.597C66.383 65.284 55.667 76 42.448 76H26.786V52.065Z" fill="#181213"/><path fill-rule="evenodd" clip-rule="evenodd" d="M66.383 52.065H26.786V76h15.662C54.88 76 65.1 66.52 66.27 54.394a24.23 24.23 0 0 0 .112-2.33Zm-2.453 2.33H29.115V73.67h13.333c11.145 0 20.32-8.44 21.482-19.277Z" fill="#F0F3F7"/><path d="M6.988 58.01c0 1.982-1.557 3.59-3.48 3.598H3.48C1.557 61.6 0 59.992 0 58.01c0-1.988 1.564-3.599 3.494-3.599 1.93 0 3.494 1.611 3.494 3.599ZM12.797 54.327h19.805c1.93 0 3.5 1.695 3.5 3.683 0 1.982-1.556 3.59-3.48 3.598h-.013c-1.93 0-3.494 1.61-3.494 3.598 0 1.987 1.565 3.598 3.494 3.598h9.322c1.927.002 3.489 1.612 3.489 3.598 0 1.987-1.564 3.598-3.494 3.598h3.494H3.489h.005C1.564 76 0 74.39 0 72.402c0-1.986 1.562-3.596 3.489-3.598h9.326c1.928.002 3.49 1.612 3.49 3.598 0 1.931-1.478 3.507-3.333 3.594a3.466 3.466 0 0 1-.161.004h9.317c-.055 0-.108-.001-.162-.004-1.855-.087-3.332-1.663-3.332-3.594 0-1.771 1.242-3.299 2.879-3.598 1.673-.296 2.944-1.825 2.944-3.598 0-1.987-1.596-3.598-3.564-3.598h-8.096c-1.923-.008-3.48-1.616-3.48-3.598 0-1.988 1.55-3.683 3.48-3.683Z" fill="#F0F3F7"/><g clip-path="url(#ca)"><path fill-rule="evenodd" clip-rule="evenodd" d="M29.588 3.885c-.454-.423-.94-.816-1.453-1.178A14.808 14.808 0 0 0 22.627.342a16.448 16.448 0 0 0-3.955-.331 16.503 16.503 0 0 0-1.87 3.87 14.809 14.809 0 0 0-.706 5.952 13.475 13.475 0 0 0 1.583 5.253 24.129 24.129 0 0 0-2.76 11.201H65.787a24.129 24.129 0 0 0-2.694-11.075A13.43 13.43 0 0 0 64.74 9.84a14.79 14.79 0 0 0-.709-5.946 16.504 16.504 0 0 0-1.87-3.868c-1.342-.049-2.67.061-3.955.329a14.79 14.79 0 0 0-5.504 2.359c-.529.372-1.027.777-1.492 1.213a26.067 26.067 0 0 0-10.857-2.366 26.067 26.067 0 0 0-10.765 2.324Z" fill="#181213"/><path fill-rule="evenodd" clip-rule="evenodd" d="m29.174 6.427-1.046-.973a11.62 11.62 0 0 0-1.227-.995 12.666 12.666 0 0 0-4.712-2.02 14.099 14.099 0 0 0-2.307-.284 14.152 14.152 0 0 0-1.044 2.395 12.667 12.667 0 0 0-.607 5.09 11.33 11.33 0 0 0 1.33 4.42l.547 1.004-.53 1.014a22.022 22.022 0 0 0-2.41 8.066h46.37a22.022 22.022 0 0 0-1.66-6.48l1.972-.84a24.162 24.162 0 0 1 1.936 9.463H14.92a24.162 24.162 0 0 1 2.76-11.201 13.475 13.475 0 0 1-1.584-5.253c-.177-1.97.063-3.993.706-5.952a16.503 16.503 0 0 1 1.87-3.87c1.34-.048 2.67.062 3.955.331a14.808 14.808 0 0 1 5.508 2.365c.514.362 1 .755 1.453 1.178a26.067 26.067 0 0 1 10.764-2.324A26.067 26.067 0 0 1 51.21 3.927c.465-.436.963-.841 1.492-1.213a14.79 14.79 0 0 1 5.504-2.36A16.448 16.448 0 0 1 62.16.027a16.504 16.504 0 0 1 1.871 3.868 14.79 14.79 0 0 1 .71 5.946l-2.135-.192a12.646 12.646 0 0 0-.61-5.084c-.27-.818-.62-1.62-1.046-2.394-.784.031-1.556.126-2.307.283a12.648 12.648 0 0 0-4.708 2.013c-.448.315-.868.657-1.26 1.025l-1.05.984-1.31-.6a23.923 23.923 0 0 0-9.963-2.17 23.923 23.923 0 0 0-9.877 2.131l-1.301.59Zm33.918 8.785A13.43 13.43 0 0 0 64.74 9.84l-2.134-.192a11.289 11.289 0 0 1-1.384 4.518l-.562 1.004.527 1.023c.248.482.48.973.692 1.472l1.971-.84a24.375 24.375 0 0 0-.758-1.613Z" fill="#F0F3F7"/><path fill-rule="evenodd" clip-rule="evenodd" d="M64.58 26.262H16.132c3.403-5.022 12.963-8.64 24.224-8.64 11.26 0 20.82 3.618 24.224 8.64ZM27.48 12.794c-.424.377-.746.965-.746 1.853h-2.115c0-1.462.559-2.636 1.456-3.433.878-.781 2.02-1.149 3.126-1.149 1.106 0 2.247.368 3.125 1.149.898.797 1.457 1.971 1.457 3.433h-2.115c0-.888-.322-1.476-.747-1.853-.443-.394-1.064-.614-1.72-.614-.656 0-1.277.22-1.72.614ZM49.567 12.794c-.424.377-.746.965-.746 1.853h-2.115c0-1.462.559-2.636 1.456-3.433.879-.781 2.02-1.149 3.126-1.149 1.106 0 2.247.368 3.126 1.149.897.797 1.456 1.971 1.456 3.433h-2.115c0-.888-.322-1.476-.746-1.853-.444-.394-1.065-.614-1.721-.614-.656 0-1.277.22-1.72.614Z" fill="#F0F3F7"/><path d="M43.704 17.27a3.525 3.525 0 1 1-7.049 0 3.525 3.525 0 0 1 7.05 0Z" fill="#181213"/></g><rect x="11.646" y="25.182" width="57.982" height="28.013" rx="5.823" fill="#F0F3F7"/><path d="M27.324 48.442h-2.907c-.246 0-.428-.019-.628 0 .036-.064 0-.137 0-.219 0-.082-.01-.168-.027-.26a3.693 3.693 0 0 0-.11-.49 33.872 33.872 0 0 0-.3-1.024l-.573-1.829-5.077-14.384a34.68 34.68 0 0 0 2.156.054c.874 0 1.433-.036 1.679-.11l4.108 12.407 3.603-12.352c.546.037 1.22.055 2.02.055 1.092 0 1.728-.036 1.91-.11l-4.98 14.4-.479 1.596c-.264.91-.395 1.501-.395 1.774 0 .264-.037.419 0 .492ZM35.803 30.18a30.259 30.259 0 0 1 3.89-.245c2.475 0 4.354.582 5.637 1.747 1.291 1.156 1.938 2.889 1.938 5.2 0 2.065-.706 3.699-2.116 4.9-1.32 1.128-3.016 1.692-5.09 1.692-.237 0-.496-.014-.779-.041v4.995h-3.48V30.181Zm4.3 3.044c-.274 0-.547.01-.82.028v7.178c.292.037.646.055 1.065.055.419 0 .855-.087 1.31-.26a3.26 3.26 0 0 0 1.147-.75c.646-.664.969-1.538.969-2.62 0-2.42-1.224-3.63-3.672-3.63ZM49.979 48.428a5.82 5.82 0 0 0 .082-1.01V30.276h2.73l7.233 11.383V31.205c0-.501-.046-.81-.137-.929h3.685a9.725 9.725 0 0 0-.068 1.201v16.951h-2.839l-7.124-10.932v10.932h-3.562Z" fill="#FF653E"/><rect x="11.646" y="25.182" width="57.982" height="28.013" rx="5.823" stroke="#FF653E" stroke-width="2.329" stroke-miterlimit="2.283" stroke-linejoin="round"/><g clip-path="url(#cb)"><path d="M71.575 27.85a.934.934 0 0 1 .313-.052l-.826.498a.925.925 0 0 1 .513-.445Zm-.625.214c.022.11.035.202.042.274l-.408.246a.717.717 0 0 1-.027-.119c-.012-.087-.002-.141-.001-.145 0-.001-.013.057-.075.19a7.903 7.903 0 0 1-.583.983 28.03 28.03 0 0 1-.885 1.234c-.155.207-.301.403-.361.498l-.07.111-.038.125-3 9.745-.027.089-.01.092a2.284 2.284 0 0 0-.01.466c.004.051.005.067.004.11l-.002.036.002.037.045 1.262.002.038.004.038c0 .005.006.063-.07.224a4.63 4.63 0 0 1-.302.505l-.07.108c-.145.226-.359.56-.476.931-.132.415-.163.937.129 1.458 1.167 2.089 3.1 3.512 5.201 4.173 2.103.661 4.502.6 6.654-.446 2.201-1.068 3.928-3.058 4.8-5.835l3.055-9.715a9.067 9.067 0 0 0 .364-1.698c.286-.554.531-1.15.732-1.786l3.054-9.715c1.72-5.47-2.12-9.588-5.963-10.918-1.99-.689-4.32-.807-6.462.055-2.228.895-3.984 2.747-4.83 5.438l-.003.012-.004.01-2.322 8.048-.178.616.487.419c.945.814 1.444 2.022 1.602 2.806Zm2.88 2.587a3.068 3.068 0 0 1-.36-1.088c.214-.191.444-.326.68-.421.66-.266 1.565-.288 2.517.041 1.325.46 2.179 1.329 2.464 2.287a3.04 3.04 0 0 1-.823.59l.437.899-.437-.9c-.736.357-1.637.412-2.504.14-.867-.273-1.575-.833-1.974-1.548Zm-4.29 10.107 1.515-4.822a9.308 9.308 0 0 0 3.06 1.637 9.306 9.306 0 0 0 3.445.408l-1.516 4.822c-.448 1.426-1.197 2.122-1.885 2.456l.436.9-.436-.9c-.737.357-1.638.412-2.505.14-.867-.273-1.574-.834-1.974-1.548-.373-.668-.59-1.667-.14-3.093Zm7.203-22.915c.369-1.174.982-1.67 1.557-1.901.66-.265 1.565-.288 2.517.042 2.008.695 2.937 2.293 2.431 3.904l.954.3-.954-.3-1.761 5.602a10.272 10.272 0 0 0-2.977-1.63 9.905 9.905 0 0 0-3.485-.551l1.718-5.466Z" fill="#F0F3F7" stroke="#F0F3F6" stroke-width="2"/><path d="M75.167 36.818c1.686.363 3.513.212 5.165-.59 1.932-.937 3.485-2.698 4.283-5.235l3.054-9.715c1.5-4.774-1.804-8.451-5.336-9.673-1.806-.625-3.883-.718-5.762.037-1.934.778-3.487 2.39-4.249 4.811l-2.735 8.7c1.038-1.084 2.7-1.816 4.404-1.89l1.798-5.72c.454-1.444 1.27-2.18 2.138-2.529.923-.37 2.08-.369 3.217.025 2.355.815 3.774 2.87 3.058 5.149l-3.054 9.715c-.524 1.666-1.447 2.592-2.403 3.056-.987.479-2.154.535-3.24.194a4.754 4.754 0 0 1-.793-.33c-1.654-.387-3.52 2.74.406 3.974l.049.021Z" fill="#00A9DC"/><path d="M77.412 28.4c2.229.643 3.76-2.033 1.759-3.176l-.013-.016a9.038 9.038 0 0 0-.975-.404c-1.806-.625-3.882-.717-5.761.038-1.935.778-3.488 2.389-4.25 4.81l-3.053 9.716c-.798 2.537-.531 4.87.516 6.744 1.032 1.844 2.746 3.115 4.63 3.707 1.883.592 4.016.531 5.917-.391 1.932-.938 3.485-2.698 4.283-5.236l2.574-8.187a7.465 7.465 0 0 1-4.47 2.102l-1.57 4.995c-.525 1.667-1.447 2.592-2.404 3.056-.987.48-2.154.536-3.24.194-1.087-.341-2.012-1.055-2.548-2.013-.518-.928-.746-2.215-.222-3.881l3.054-9.715c.454-1.444 1.27-2.18 2.138-2.53.923-.37 2.08-.368 3.218.026.142.049.281.103.417.161Z" fill="#00A9DC"/></g><defs><clipPath id="ca"><path fill="#fff" transform="translate(14.803)" d="M0 0h53.573v26.276H0z"/></clipPath><clipPath id="cb"><path fill="#fff" transform="translate(53.821 9.225)" d="M0 0h36.179v43.198H0z"/></clipPath></defs></symbol><symbol fill="none" viewBox="0 0 20 17" id="telegram" xmlns="http://www.w3.org/2000/svg"><mask id="da" maskUnits="userSpaceOnUse" x=".299" y=".034" width="20" height="17" fill="#000"><path fill="#fff" d="M.299.034h20v17h-20z"/><path fill-rule="evenodd" clip-rule="evenodd" d="M3.358 7.529c4.134-1.801 6.891-2.989 8.27-3.563 3.94-1.638 4.758-1.922 5.291-1.932.117-.002.38.027.55.165a.597.597 0 0 1 .201.384 2.5 2.5 0 0 1 .024.558c-.213 2.243-1.137 7.685-1.607 10.197-.198 1.062-.59 1.419-.969 1.454-.824.075-1.449-.545-2.247-1.068-1.248-.818-1.953-1.327-3.164-2.126-1.4-.922-.493-1.43.305-2.258.209-.217 3.838-3.518 3.908-3.817.008-.038.017-.177-.066-.25-.083-.075-.206-.05-.294-.03-.125.03-2.12 1.347-5.982 3.955-.566.388-1.079.578-1.538.568-.506-.011-1.48-.287-2.204-.522-.889-.289-1.594-.441-1.533-.932.032-.255.384-.516 1.055-.783Z"/></mask><path fill-rule="evenodd" clip-rule="evenodd" d="M3.358 7.529c4.134-1.801 6.891-2.989 8.27-3.563 3.94-1.638 4.758-1.922 5.291-1.932.117-.002.38.027.55.165a.597.597 0 0 1 .201.384 2.5 2.5 0 0 1 .024.558c-.213 2.243-1.137 7.685-1.607 10.197-.198 1.062-.59 1.419-.969 1.454-.824.075-1.449-.545-2.247-1.068-1.248-.818-1.953-1.327-3.164-2.126-1.4-.922-.493-1.43.305-2.258.209-.217 3.838-3.518 3.908-3.817.008-.038.017-.177-.066-.25-.083-.075-.206-.05-.294-.03-.125.03-2.12 1.347-5.982 3.955-.566.388-1.079.578-1.538.568-.506-.011-1.48-.287-2.204-.522-.889-.289-1.594-.441-1.533-.932.032-.255.384-.516 1.055-.783Z" fill="#00A9DC"/><path clip-rule="evenodd" d="M3.358 7.529c4.134-1.801 6.891-2.989 8.27-3.563 3.94-1.638 4.758-1.922 5.291-1.932.117-.002.38.027.55.165a.597.597 0 0 1 .201.384 2.5 2.5 0 0 1 .024.558c-.213 2.243-1.137 7.685-1.607 10.197-.198 1.062-.59 1.419-.969 1.454-.824.075-1.449-.545-2.247-1.068-1.248-.818-1.953-1.327-3.164-2.126-1.4-.922-.493-1.43.305-2.258.209-.217 3.838-3.518 3.908-3.817.008-.038.017-.177-.066-.25-.083-.075-.206-.05-.294-.03-.125.03-2.12 1.347-5.982 3.955-.566.388-1.079.578-1.538.568-.506-.011-1.48-.287-2.204-.522-.889-.289-1.594-.441-1.533-.932.032-.255.384-.516 1.055-.783Z" mask="url(#da)"/></symbol></svg>